<?xml version="1.0" encoding="UTF-8"?>
<svg id="banner" xmlns="http://www.w3.org/2000/svg" version="1.1" xmlns:xlink="http://www.w3.org/1999/xlink" viewBox="0 0 1920 1080">
  <!-- Generator: Adobe Illustrator 29.2.1, SVG Export Plug-In . SVG Version: 2.1.0 Build 116)  -->
  <defs>
    <style>
      .st0 {
        fill: #ff7900;
      }

      .st1 {
        fill: #ff7300;
      }
    </style>
  </defs>
  <rect x="-11" y="-10" width="1933" height="1094"/>
  <path class="st0" d="M1236.4,1090.2s-257.4-53.2-144.3-249.6c19.5-33.8,97.5-90.2,42.5-150.2,0,0-139.6-152,54.6-190.9,32.4-6.5,87.4,14.9,114.4-66.1,0,0,22.3-132.9,127.8-120.1,38.4,4.7,71.2,29.9,86.9,65.3,9.1,20.5,21.8,40.6,35.4,34.8,0,0,93-86.9,130.5-6.9,0,0,9.1,50,29.8,85.4,17.8,30.6,62.1,30.7,80.4.3,26.3-43.9,82.5-111,130.7,7.3v585.6l-688.6,5.2Z"/>
  <image width="584" height="626" transform="translate(1020 111) scale(1.6)" xlink:href="Gatinho Maine Coon em frente a uma parede branca _ Foto Premium.png"/>
  <path class="st1" d="M2094.4,339.1c-12.7,0-23,10.3-23,23s10.3,23,23,23,23-10.3,23-23-10.3-23-23-23ZM2094.4,371.9c-5.4,0-9.8-4.4-9.8-9.8s4.4-9.8,9.8-9.8,9.8,4.4,9.8,9.8-4.4,9.8-9.8,9.8ZM1979.6,362.1c0-12.7-10.3-23-23-23s-23,10.3-23,23,10.3,23,23,23,23-10.3,23-23h0ZM1956.6,371.9c-5.4,0-9.8-4.4-9.8-9.8s4.4-9.8,9.8-9.8,9.8,4.4,9.8,9.8-4.4,9.8-9.8,9.8ZM1996,345.7c12.7,0,23-10.3,23-23s-10.3-23-23-23-23,10.3-23,23,10.3,23,23,23ZM1996,312.9c5.4,0,9.8,4.4,9.8,9.8s-4.4,9.8-9.8,9.8-9.8-4.4-9.8-9.8,4.4-9.8,9.8-9.8ZM2055,345.7c12.7,0,23-10.3,23-23s-10.3-23-23-23-23,10.3-23,23,10.3,23,23,23ZM2055,312.9c5.4,0,9.8,4.4,9.8,9.8s-4.4,9.8-9.8,9.8-9.8-4.4-9.8-9.8,4.4-9.8,9.8-9.8ZM2074,395.6c-6.7-3.7-11.7-9.9-13.8-17.3-5.6-19.1-25.6-30.1-44.7-24.6-11.9,3.4-21.1,12.7-24.6,24.6-2.1,7.4-7,13.6-13.7,17.3-15.9,8.6-21.9,28.5-13.2,44.5,5.7,10.6,16.8,17.2,28.8,17.2,4.4,0,8.7-.9,12.7-2.6,12.8-5.3,27.2-5.3,40.1,0,16.6,7.2,35.9-.4,43.2-17,6.8-15.7.4-34-14.7-42h0ZM2058.3,444.1c-2.7,0-5.3-.5-7.7-1.6-16.1-6.6-34.1-6.6-50.2,0-10,4.3-21.6-.3-25.9-10.3-4.1-9.4-.2-20.4,8.9-25.2,9.8-5.4,17-14.4,20.1-25.2,3.5-12.2,16.3-19.2,28.5-15.7,7.6,2.2,13.5,8.1,15.7,15.7,3.1,10.7,10.3,19.8,20.1,25.2,9.6,5.1,13.2,17.1,8,26.6-3.4,6.4-10.1,10.4-17.4,10.4Z"/>
  <image width="1280" height="1280" transform="translate(1908 552.7) rotate(-19.1) scale(.2)" xlink:href="pata.webp"/>
  <g>
    <path class="st1" d="M2148.7,1050.4c16.4-1.4,32.9,1.8,47.1,10.1,6.3,3.7,12.3,8.1,16.3,13.1,0,0,51.7,70,125.3,24.8,2.3-1.4,4.8-2.6,7.3-3.8,10.9-5.4,44.9-34.4,12.7-181.9,0,0-18-95.1-80.5-145-15.6-12.4-35.3-18.6-55.2-17.1-32.6,2.4-87.8,18.1-159.6,81.9-.9.8-1.7,1.5-2.7,2.3-8.1,6.5-55.1,45.9-78.2,93.7-20.4,42.3-.2,93.4,43.7,110.3,26.8,10.3,66.2,16.7,123.9,11.7Z"/>
    <path class="st1" d="M2395.3,780.1s28.4-60,85.2-75.8c0,0,57.1-25.1,77.5,23.8,20.4,48.8-3,141-75,181.7,0,0-100.4,47.1-113-44.5,0,0-3.2-37.9,25.3-85.2Z"/>
    <path class="st1" d="M1959.5,653.3s-13.8-64.9,21.7-112c0,0,30.1-54.6,76-28.1,45.8,26.4,83.2,113.8,50.8,189.9,0,0-51.2,98.3-116.8,33.3,0,0-25.5-28.2-31.7-83.1Z"/>
    <ellipse class="st1" cx="2226.4" cy="488.1" rx="143.6" ry="80.5" transform="translate(1395.3 2610.4) rotate(-81)"/>
    <ellipse class="st1" cx="2415.8" cy="557.5" rx="143.6" ry="80.5" transform="translate(876.6 2501.2) rotate(-64.6)"/>
  </g>
  <g>
    <path class="st1" d="M937.1,1010.3c3.9-2.9,8.5-4.6,13.4-4.8,2.1,0,4.3.1,6.1.8,0,0,23.8,9.6,35.3-13.2s.8-1.4,1.2-2.1c1.9-3,5.9-15.6-25-47.7,0,0-19.2-21.1-42.7-23.9-5.8-.7-11.8.8-16.5,4.2-7.8,5.7-19.3,18.2-27.4,45.3,0,.3-.2.7-.3,1-1,2.9-6.7,20.1-5.1,35.7s14.4,23.5,28.1,20.9c8.3-1.6,19.2-6.1,32.9-16.3Z"/>
    <path class="st1" d="M957.1,904.2s-2.2-19.5,9.7-32.2c0,0,10.5-15.1,23.1-6,12.7,9.1,21.1,35.9,9.3,57.3,0,0-17.9,27.4-35.3,6.3,0,0-6.7-9-6.9-25.3Z"/>
    <path class="st1" d="M828,939.9s-13.5-14.2-11.9-31.5c0,0-.9-18.4,14.7-18.8,15.6-.5,38.5,15.7,42.2,39.8,0,0,2.4,32.6-24.2,26.5,0,0-10.8-3.1-20.8-16Z"/>
    <ellipse class="st1" cx="869.5" cy="857" rx="23.8" ry="42.4" transform="translate(-263 401.1) rotate(-22.7)"/>
    <ellipse class="st1" cx="927.8" cy="845.1" rx="23.8" ry="42.4" transform="translate(-87.1 106.9) rotate(-6.3)"/>
  </g>
  <g>
    <path class="st1" d="M1745,325.6c4.8.1,9.6,1.6,13.5,4.5,1.7,1.3,3.3,2.8,4.4,4.4,0,0,12.9,22.2,36,11.2s1.5-.6,2.3-.9c3.4-1.2,14.2-8.7,9.5-53,0,0-2.2-28.5-19-45.1-4.2-4.1-9.8-6.6-15.6-6.8-9.6-.3-26.3,2.5-49.4,19-.3.2-.6.4-.8.6-2.6,1.7-17.6,11.7-25.9,25s-3,27.4,9.3,33.8c7.5,3.9,18.9,7,36,7.4Z"/>
    <path class="st1" d="M1825.9,254.1s10.2-16.7,27.4-19.5c0,0,17.5-5.5,22,9.4,4.4,15-5.4,41.3-27.8,50.9,0,0-30.9,10.6-31.7-16.6,0,0,.3-11.2,10.1-24.2Z"/>
    <path class="st1" d="M1702.1,203s-2-19.5,9.9-32.2c0,0,10.6-15.1,23.2-5.8,12.6,9.2,20.8,36,8.9,57.3,0,0-18.1,27.2-35.3,6,0,0-6.6-9.1-6.7-25.4Z"/>
    <ellipse class="st1" cx="1785.6" cy="163" rx="42.4" ry="23.8" transform="translate(1160.2 1843.5) rotate(-74.8)"/>
    <ellipse class="st1" cx="1839" cy="189.4" rx="42.4" ry="23.8" transform="translate(715.1 1657.3) rotate(-58.4)"/>
  </g>
  <g>
    <path class="st1" d="M130.3,807.2c1.9-2.6,4.6-4.7,7.7-5.7s2.8-.8,4.1-.7c0,0,17.2,1.6,20.2-15.4s.2-1.1.4-1.6c.6-2.3.8-11.2-25.4-25.9,0,0-16.5-9.9-32.2-7.2-3.9.7-7.4,2.8-9.8,5.9-3.9,5.2-8.9,15.5-8.9,34.6,0,.2,0,.5,0,.7,0,2.1-.5,14.3,3.6,24,3.6,8.6,13.9,12.4,22.2,8.1,5.1-2.6,11.2-7.6,18.1-16.9Z"/>
    <path class="st1" d="M122.7,734.7s-5.2-12.2,0-22.7c0,0,3.8-11.8,13.8-8.4,10,3.4,20.6,19.1,17.1,35.2,0,0-6.3,21.2-21.6,10.9,0,0-6.1-4.5-9.4-15Z"/>
    <path class="st1" d="M46.2,782.8s-11.5-6.5-13.8-18c0,0-4.1-11.7,5.9-15,10-3.3,28,2.7,35,17.5,0,0,7.9,20.6-10.5,21.8,0,0-7.6,0-16.6-6.3Z"/>
    <ellipse class="st1" cx="56.9" cy="721.3" rx="16" ry="28.6" transform="translate(-444.6 199.8) rotate(-39.4)"/>
    <ellipse class="st1" cx="92.3" cy="702.3" rx="16" ry="28.6" transform="translate(-267.2 92) rotate(-23)"/>
  </g>
  <g>
    <path class="st1" d="M39.6,292.6c2.4.9,4.4,2.5,5.8,4.6s1.1,2,1.4,2.9c0,0,2.3,13.2,15.6,12,.4,0,.8,0,1.3,0,1.9,0,8.5-1.7,14.2-24.2,0,0,4-14.3-1.2-25.5s-3.6-5-6.4-6.1c-4.7-1.9-13.3-3.5-27.6.4s-.3,0-.5.1c-1.6.3-10.7,2.6-17.2,7.6s-6.4,12.9-1.5,18.2,8,6.8,16.3,10.1Z"/>
    <path class="st1" d="M92.1,272.2s8-6.3,16.9-4.6c0,0,9.6.5,9,8.6s-10.1,19.2-22.8,19.9c0,0-17.1-.4-12.5-13.9,0,0,2.2-5.4,9.3-10Z"/>
    <path class="st1" d="M40.7,224.9s2.5-9.9,10.7-13.9c0,0,7.9-5.5,12.4,1.3,4.5,6.8,3.7,21.4-6,29.6,0,0-13.8,10-18.4-3.4,0,0-1.6-5.6,1.3-13.6Z"/>
    <ellipse class="st1" cx="88.8" cy="220.4" rx="22.1" ry="12.4" transform="translate(-142.3 165) rotate(-54.6)"/>
    <ellipse class="st1" cx="110.1" cy="243" rx="22.1" ry="12.4" transform="translate(-126.7 120.2) rotate(-38.2)"/>
  </g>
</svg>