<svg version="1.1" id="Layer_1" xmlns="http://www.w3.org/2000/svg" xmlns:xlink="http://www.w3.org/1999/xlink" x="0px" y="0px"
	 width="100%" viewBox="0 0 460 332" enable-background="new 0 0 460 332" xml:space="preserve">
<path fill="#010101" opacity="1.000000" stroke="none" 
	d="
M335.000000,333.000000 
	C223.368423,333.000000 112.236839,333.000000 1.052627,333.000000 
	C1.052627,222.403366 1.052627,111.806702 1.052627,1.105018 
	C154.214859,1.105018 307.429810,1.105018 460.822388,1.105018 
	C460.822388,111.666428 460.822388,222.333191 460.822388,333.000000 
	C419.140106,333.000000 377.320038,333.000000 335.000000,333.000000 
M89.992340,111.068573 
	C95.385498,115.705727 101.563927,119.966003 103.123657,127.391365 
	C105.209808,137.322876 118.239540,143.897842 127.494049,142.025101 
	C142.902847,138.907013 158.470184,136.579361 173.946793,133.786133 
	C180.634445,132.579147 185.252335,135.260651 188.948898,140.610336 
	C193.469162,147.152084 194.478424,154.688232 195.185715,162.220459 
	C196.798737,179.398727 198.081848,196.607971 199.496094,213.769226 
	C233.008255,213.769226 266.008759,213.769226 298.566956,213.769226 
	C298.147552,206.616257 296.051117,199.378952 297.657959,193.087479 
	C303.178162,171.473969 319.122253,165.473801 338.393066,168.626022 
	C352.163239,170.878479 354.245819,170.065170 360.883362,156.062698 
	C362.718567,152.191177 363.744476,147.909653 365.787415,144.168915 
	C369.277039,137.779236 366.350128,130.573227 361.347107,127.601288 
	C357.795532,125.491554 353.956757,123.465797 351.210205,120.507538 
	C348.184235,117.248383 344.632172,113.130447 344.223480,109.091721 
	C343.542572,102.362480 341.131500,97.300987 335.880829,93.665932 
	C326.819916,87.392990 320.073486,79.206848 314.414948,69.882645 
	C310.619232,63.627972 306.351685,57.659626 301.978302,51.086838 
	C300.866730,52.833355 300.154419,53.913761 299.480347,55.017513 
	C291.842407,67.524162 282.788635,78.515930 269.094147,84.965111 
	C265.133057,86.830528 261.206635,89.237213 258.024200,92.209404 
	C242.492294,106.715370 233.282593,125.333916 225.381073,144.590240 
	C220.127472,157.393494 216.102219,170.580292 214.823212,184.586288 
	C214.298080,190.336685 215.906693,197.543655 208.418793,201.415100 
	C208.029434,199.147385 207.466736,196.987549 207.312637,194.798935 
	C205.845840,173.964905 211.513672,154.615402 219.537231,135.720520 
	C220.232834,134.082382 220.244812,131.551712 219.467056,129.985474 
	C213.261108,117.488106 208.603394,104.721519 207.105133,90.586655 
	C205.463684,75.101059 210.097733,62.567059 221.200729,51.765450 
	C211.893738,76.273262 212.885223,100.034332 225.753143,124.093643 
	C236.095718,105.466133 247.414032,88.675171 265.821381,77.155327 
	C263.074127,70.862915 260.977814,64.315613 257.524475,58.586243 
	C253.040741,51.147400 248.218613,43.458462 237.513596,43.975033 
	C235.540283,44.070259 233.258316,43.022739 231.528503,41.881618 
	C227.130814,38.980530 223.343552,34.876869 218.632690,32.781921 
	C206.589203,27.426109 193.954163,25.030645 180.660934,27.709167 
	C163.376907,31.191811 151.290573,41.422199 142.648178,56.282970 
	C141.421722,58.391888 139.623856,60.687706 139.619995,62.899689 
	C139.602036,73.158997 133.993256,80.323654 126.379013,85.593849 
	C118.677315,90.924591 109.890411,94.660843 101.788727,99.450516 
	C97.103203,102.220573 91.386520,104.106995 89.992340,111.068573 
M331.694183,238.015182 
	C333.142609,233.656250 334.591034,229.297333 336.006134,225.038696 
	C331.637543,225.038696 326.394958,225.038696 322.516937,225.038696 
	C319.193756,236.600739 316.019012,247.646393 312.910583,258.461304 
	C317.248230,258.461304 322.644623,258.461304 328.084625,258.461304 
	C327.352142,247.735046 328.267303,241.076675 340.183685,244.382278 
	C338.528870,249.056381 336.885010,253.699417 334.984283,259.068085 
	C339.406097,259.068085 343.979126,259.170319 348.538757,258.968689 
	C349.309937,258.934601 350.517517,257.683411 350.673798,256.837555 
	C351.216339,253.900574 350.966248,250.775085 351.775787,247.937592 
	C353.986755,240.188141 356.584534,232.549042 358.952393,225.107315 
	C354.507385,225.107315 349.388062,225.107315 344.876251,225.107315 
	C343.767822,230.021866 342.727295,234.635300 341.644592,239.435638 
	C338.101288,239.253189 334.968292,239.091873 331.694183,238.015182 
M125.029259,259.879303 
	C133.717102,257.367065 139.010178,251.546738 141.550766,243.001984 
	C145.042557,231.258057 138.488281,222.485672 127.261909,223.916092 
	C114.610397,225.528107 107.604469,231.790207 105.330559,244.429276 
	C103.921158,252.263168 105.739197,259.772003 116.106812,259.999878 
	C118.809494,260.059296 121.514610,260.007446 125.029259,259.879303 
M423.757263,234.740601 
	C428.509338,237.862747 428.714966,237.797882 430.359711,232.557632 
	C430.987518,230.557419 431.588013,228.548615 432.304840,226.203964 
	C431.276855,225.766159 429.660400,224.714493 429.363342,225.006210 
	C425.459961,228.839813 421.745453,225.586823 417.924652,225.021774 
	C415.324310,224.637222 412.510223,224.392441 410.002319,224.981644 
	C405.819305,225.964371 402.175262,228.416519 401.398743,232.935913 
	C400.590149,237.642044 401.075226,242.181747 406.177521,244.911987 
	C408.894257,246.365753 411.325195,248.413559 413.693085,250.419876 
	C414.334137,250.963013 414.749146,252.560623 414.411163,253.260605 
	C414.037048,254.035446 412.359406,254.998459 411.805908,254.730392 
	C409.136200,253.437485 406.255280,252.163483 404.186096,250.132217 
	C399.489655,245.521896 397.651306,245.624207 395.617859,251.924255 
	C394.905334,254.131699 395.525391,256.769257 395.536896,259.210388 
	C397.593201,258.353455 399.647003,257.490479 401.708557,256.646332 
	C402.002594,256.525940 402.333923,256.496521 402.794189,256.391724 
	C406.659149,260.827209 412.049164,260.498596 417.031433,259.818787 
	C421.751129,259.174835 425.524536,256.116028 426.972473,251.299942 
	C428.418335,246.490768 426.326477,242.364365 421.446014,239.268570 
	C419.215027,237.853409 416.740356,236.714478 414.820282,234.963333 
	C413.879150,234.104996 413.952179,232.134705 413.566193,230.667648 
	C415.194946,230.408081 417.121826,229.482086 418.382202,230.045959 
	C420.248871,230.881119 421.642731,232.773178 423.757263,234.740601 
M306.557343,224.913437 
	C305.925995,225.199982 305.294647,225.486526 304.663300,225.773056 
	C307.806305,232.155182 302.321899,236.821411 301.672974,242.505417 
	C298.749207,237.582748 296.384125,232.651031 293.813080,227.829178 
	C293.194916,226.669846 291.961548,225.145508 290.893097,225.045120 
	C287.222900,224.700272 283.500366,224.912674 280.950470,224.912674 
	C279.643280,237.411636 276.302826,248.344620 271.206879,259.325439 
	C274.625641,259.031769 277.794708,258.759583 281.013885,258.483063 
	C277.890869,250.016632 283.985504,244.092102 284.071991,235.809860 
	C287.542664,243.096664 290.067169,249.220093 293.371857,254.888672 
	C294.527802,256.871460 297.502655,258.489441 299.845154,258.805756 
	C301.109863,258.976562 303.143005,256.251434 304.189270,254.459091 
	C305.233429,252.670364 305.443207,250.404068 306.079712,248.366180 
	C308.501251,240.612930 310.947418,232.867386 313.432220,224.966934 
	C311.998993,224.966934 309.731262,224.966934 306.557343,224.913437 
M62.366985,252.783798 
	C62.623486,251.259491 62.879982,249.735168 63.136482,248.210861 
	C62.677311,247.846024 62.218140,247.481171 61.758968,247.116333 
	C59.811596,248.547791 57.511612,249.680847 55.993080,251.475220 
	C53.167072,254.814667 50.009090,255.581909 45.855286,254.277100 
	C46.945187,250.381531 47.954140,246.775299 49.276379,242.049286 
	C50.940945,243.185638 52.205502,244.503845 53.726429,244.952011 
	C55.093353,245.354767 57.242519,245.348022 58.135658,244.528778 
	C59.184429,243.566788 59.397724,241.560028 59.692593,239.954788 
	C59.907246,238.786240 59.666584,237.534058 59.628914,236.319153 
	C58.271324,236.623993 56.821007,236.723557 55.579109,237.284515 
	C53.947403,238.021561 52.479801,239.121918 50.941624,240.066025 
	C50.687553,239.681137 50.433479,239.296234 50.179409,238.911331 
	C51.116558,235.646103 52.053707,232.380859 52.925194,229.344406 
	C55.693546,229.098755 58.041252,228.890442 60.670597,228.657135 
	C60.942238,229.704773 60.909912,231.051743 61.564816,231.784637 
	C62.750835,233.111893 64.346588,234.073044 65.771286,235.187042 
	C66.877037,232.640091 68.211533,230.151352 68.887741,227.495056 
	C69.016731,226.988373 66.564995,225.105728 65.272659,225.072433 
	C56.635571,224.850067 47.990005,224.956955 40.685410,224.956955 
	C39.178509,231.071457 37.995308,236.730652 36.362385,242.256958 
	C34.729073,247.784653 32.646133,253.179489 30.601528,259.091614 
	C38.746231,259.091614 47.187046,258.910309 55.614426,259.168182 
	C59.823429,259.296967 61.798725,257.587402 62.366985,252.783798 
M366.917389,258.642578 
	C365.705811,250.500168 367.543915,246.990631 377.713654,249.590210 
	C376.238373,252.831100 374.816376,255.954941 373.320984,259.240051 
	C378.406738,259.240051 383.941772,259.240051 388.666840,259.240051 
	C388.952148,256.099548 388.847351,253.756638 389.423859,251.595490 
	C390.864807,246.193924 392.794373,240.920715 394.178436,235.506668 
	C395.111145,231.858292 395.282837,227.775452 391.258636,225.846405 
	C385.472504,223.072769 375.042725,223.463501 370.963226,231.778564 
	C366.415680,241.047501 364.257202,251.978409 354.868439,258.466980 
	C354.998199,258.982971 355.127930,259.498993 355.257690,260.015015 
	C358.962402,259.769684 362.667145,259.524323 366.917389,258.642578 
M200.797867,224.792847 
	C194.624878,223.061020 189.041473,225.900604 185.845230,231.804718 
	C180.910858,240.919525 178.835648,251.769257 169.783722,259.211975 
	C173.169830,259.936859 176.493011,260.033997 179.799454,259.842377 
	C180.357651,259.810028 181.258057,258.557007 181.300125,257.827606 
	C181.817413,248.859695 182.961487,247.916611 192.447586,249.444016 
	C190.956543,252.703552 189.517700,255.848984 187.644028,259.945007 
	C192.626465,259.945007 197.346741,260.060852 202.048386,259.817200 
	C202.735199,259.781586 203.681656,258.103210 203.894638,257.059784 
	C204.259476,255.272598 203.827942,253.305344 204.282944,251.557434 
	C205.566208,246.627716 207.411224,241.833405 208.511887,236.869766 
	C209.878738,230.705597 210.140091,225.368530 200.797867,224.792847 
M173.626099,225.131836 
	C165.182602,225.131836 156.739105,225.131836 149.194153,225.131836 
	C146.797699,236.784973 144.897659,248.205109 139.060547,258.528564 
	C144.852386,258.528564 150.629608,258.528564 156.612198,258.528564 
	C156.398834,257.486115 156.399216,256.990814 156.201096,256.594788 
	C153.347809,250.891022 156.192520,246.523163 162.461273,246.068237 
	C166.461426,245.777939 171.135391,245.346786 174.114441,243.117523 
	C176.974579,240.977234 179.079208,236.558777 179.504654,232.907120 
	C179.761688,230.700882 176.187927,228.048355 173.626099,225.131836 
M78.882599,227.116348 
	C73.317444,230.302933 71.203590,235.794571 70.077324,241.517715 
	C68.156456,251.278687 72.538605,258.756073 80.608795,259.895782 
	C87.713150,260.899109 94.199776,259.532776 98.524170,253.079956 
	C99.171509,252.114014 99.048843,250.632019 99.282387,249.388763 
	C97.794441,249.362610 96.107437,248.884293 94.870697,249.428757 
	C93.437187,250.059860 92.558746,251.882812 91.146889,252.650574 
	C89.595024,253.494446 87.072449,254.663681 86.114975,254.012283 
	C84.546089,252.944962 82.957207,250.467606 83.058441,248.680176 
	C83.278809,244.789444 83.918114,240.644943 85.604454,237.200623 
	C87.009361,234.331116 90.151321,232.312073 92.523926,229.916367 
	C94.128296,231.878311 95.734085,233.839096 97.333748,235.804871 
	C97.436806,235.931534 97.454712,236.152252 97.576355,236.235153 
	C98.752419,237.036789 100.008743,238.512314 101.109047,238.406860 
	C102.171410,238.305008 103.366737,236.715775 103.984703,235.513275 
	C104.957108,233.621063 105.614777,231.537552 106.168510,229.471481 
	C106.473450,228.333679 106.761757,226.354721 106.233917,226.007675 
	C105.192429,225.322891 103.465111,225.101242 102.229301,225.442001 
	C100.758110,225.847672 99.505341,227.045517 98.151779,227.904053 
	C93.083694,223.877869 86.245094,223.471161 78.882599,227.116348 
M216.976852,257.816803 
	C219.296417,258.240051 221.601212,258.850769 223.939606,259.035248 
	C226.411224,259.230225 229.532486,259.900024 231.217300,258.718597 
	C232.675354,257.696198 232.455185,254.353638 233.087616,252.067291 
	C235.184143,244.487930 237.330688,236.922440 239.824814,228.046432 
	C241.554367,229.524445 242.816849,230.506287 243.964050,231.608154 
	C245.401657,232.988953 246.744675,234.468262 248.128525,235.905029 
	C249.363220,234.286591 250.644135,232.700302 251.804855,231.030457 
	C252.159500,230.520264 252.102280,229.743027 252.373428,229.152237 
	C253.653564,226.363083 252.649109,224.983337 249.722916,224.963699 
	C238.913193,224.891098 228.092468,224.637985 217.305832,225.121063 
	C215.861267,225.185745 214.262375,228.955292 213.386673,231.257141 
	C213.005280,232.259613 214.270966,233.888733 214.788620,235.233261 
	C216.483398,234.273773 218.212845,233.369904 219.863922,232.340347 
	C221.810501,231.126556 223.689255,229.804001 225.597412,228.528595 
	C225.903885,228.960312 226.210342,229.392029 226.516815,229.823730 
	C224.455307,236.926987 222.496460,244.062668 220.269028,251.113480 
	C219.610901,253.196762 218.194611,255.040558 216.976852,257.816803 
M268.590424,235.246445 
	C269.900024,231.853500 271.209625,228.460556 272.421661,225.320343 
	C267.477600,225.320343 262.148590,225.320343 257.880768,225.320343 
	C256.227448,237.119705 253.256622,247.876694 247.834534,258.946655 
	C252.870529,258.946655 257.744202,259.031860 262.605713,258.827576 
	C263.149597,258.804749 263.919373,257.185730 264.067810,256.226990 
	C264.345306,254.434174 263.945526,252.512314 264.356842,250.768997 
	C265.525513,245.815628 266.960876,240.925171 268.590424,235.246445 
z"/>
<path fill="#FDFDFD" opacity="1.000000" stroke="none" 
	d="
M89.863785,110.703659 
	C91.386520,104.106995 97.103203,102.220573 101.788727,99.450516 
	C109.890411,94.660843 118.677315,90.924591 126.379013,85.593849 
	C133.993256,80.323654 139.602036,73.158997 139.619995,62.899689 
	C139.623856,60.687706 141.421722,58.391888 142.648178,56.282970 
	C151.290573,41.422199 163.376907,31.191811 180.660934,27.709167 
	C193.954163,25.030645 206.589203,27.426109 218.632690,32.781921 
	C223.343552,34.876869 227.130814,38.980530 231.528503,41.881618 
	C233.258316,43.022739 235.540283,44.070259 237.513596,43.975033 
	C248.218613,43.458462 253.040741,51.147400 257.524475,58.586243 
	C260.977814,64.315613 263.074127,70.862915 265.821381,77.155327 
	C247.414032,88.675171 236.095718,105.466133 225.753143,124.093643 
	C212.885223,100.034332 211.893738,76.273262 221.200729,51.765450 
	C210.097733,62.567059 205.463684,75.101059 207.105133,90.586655 
	C208.603394,104.721519 213.261108,117.488106 219.467056,129.985474 
	C220.244812,131.551712 220.232834,134.082382 219.537231,135.720520 
	C211.513672,154.615402 205.845840,173.964905 207.312637,194.798935 
	C207.466736,196.987549 208.029434,199.147385 208.418793,201.415100 
	C215.906693,197.543655 214.298080,190.336685 214.823212,184.586288 
	C216.102219,170.580292 220.127472,157.393494 225.381073,144.590240 
	C233.282593,125.333916 242.492294,106.715370 258.024200,92.209404 
	C261.206635,89.237213 265.133057,86.830528 269.094147,84.965111 
	C282.788635,78.515930 291.842407,67.524162 299.480347,55.017513 
	C300.154419,53.913761 300.866730,52.833355 301.978302,51.086838 
	C306.351685,57.659626 310.619232,63.627972 314.414948,69.882645 
	C320.073486,79.206848 326.819916,87.392990 335.880829,93.665932 
	C341.131500,97.300987 343.542572,102.362480 344.223480,109.091721 
	C344.632172,113.130447 348.184235,117.248383 351.210205,120.507538 
	C353.956757,123.465797 357.795532,125.491554 361.347107,127.601288 
	C366.350128,130.573227 369.277039,137.779236 365.787415,144.168915 
	C363.744476,147.909653 362.718567,152.191177 360.883362,156.062698 
	C354.245819,170.065170 352.163239,170.878479 338.393066,168.626022 
	C319.122253,165.473801 303.178162,171.473969 297.657959,193.087479 
	C296.051117,199.378952 298.147552,206.616257 298.566956,213.769226 
	C266.008759,213.769226 233.008255,213.769226 199.496094,213.769226 
	C198.081848,196.607971 196.798737,179.398727 195.185715,162.220459 
	C194.478424,154.688232 193.469162,147.152084 188.948898,140.610336 
	C185.252335,135.260651 180.634445,132.579147 173.946793,133.786133 
	C158.470184,136.579361 142.902847,138.907013 127.494049,142.025101 
	C118.239540,143.897842 105.209808,137.322876 103.123657,127.391365 
	C101.563927,119.966003 95.385498,115.705727 89.863785,110.703659 
z"/>
<path fill="#F5F5F5" opacity="1.000000" stroke="none" 
	d="
M331.764740,238.472870 
	C334.968292,239.091873 338.101288,239.253189 341.644592,239.435638 
	C342.727295,234.635300 343.767822,230.021866 344.876251,225.107315 
	C349.388062,225.107315 354.507385,225.107315 358.952393,225.107315 
	C356.584534,232.549042 353.986755,240.188141 351.775787,247.937592 
	C350.966248,250.775085 351.216339,253.900574 350.673798,256.837555 
	C350.517517,257.683411 349.309937,258.934601 348.538757,258.968689 
	C343.979126,259.170319 339.406097,259.068085 334.984283,259.068085 
	C336.885010,253.699417 338.528870,249.056381 340.183685,244.382278 
	C328.267303,241.076675 327.352142,247.735046 328.084625,258.461304 
	C322.644623,258.461304 317.248230,258.461304 312.910583,258.461304 
	C316.019012,247.646393 319.193756,236.600739 322.516937,225.038696 
	C326.394958,225.038696 331.637543,225.038696 336.006134,225.038696 
	C334.591034,229.297333 333.142609,233.656250 331.764740,238.472870 
z"/>
<path fill="#F6F6F6" opacity="1.000000" stroke="none" 
	d="
M124.623932,259.942993 
	C121.514610,260.007446 118.809494,260.059296 116.106812,259.999878 
	C105.739197,259.772003 103.921158,252.263168 105.330559,244.429276 
	C107.604469,231.790207 114.610397,225.528107 127.261909,223.916092 
	C138.488281,222.485672 145.042557,231.258057 141.550766,243.001984 
	C139.010178,251.546738 133.717102,257.367065 124.623932,259.942993 
M122.588470,254.999802 
	C125.081207,248.079437 127.799561,241.226639 129.907150,234.190903 
	C130.430359,232.444260 128.976379,230.105331 128.196747,227.149704 
	C119.439842,234.943237 118.293259,244.209091 117.223648,253.328369 
	C116.790749,257.019165 119.198105,257.504486 122.588470,254.999802 
z"/>
<path fill="#F4F4F4" opacity="1.000000" stroke="none" 
	d="
M423.497559,234.477936 
	C421.642731,232.773178 420.248871,230.881119 418.382202,230.045959 
	C417.121826,229.482086 415.194946,230.408081 413.566193,230.667664 
	C413.952179,232.134705 413.879150,234.104996 414.820282,234.963333 
	C416.740356,236.714478 419.215027,237.853409 421.446014,239.268570 
	C426.326477,242.364365 428.418335,246.490768 426.972473,251.299942 
	C425.524536,256.116028 421.751129,259.174835 417.031433,259.818787 
	C412.049164,260.498596 406.659149,260.827209 402.794189,256.391724 
	C402.333923,256.496521 402.002594,256.525940 401.708557,256.646332 
	C399.647003,257.490479 397.593201,258.353455 395.536896,259.210388 
	C395.525391,256.769257 394.905334,254.131699 395.617859,251.924255 
	C397.651306,245.624207 399.489655,245.521896 404.186096,250.132217 
	C406.255280,252.163483 409.136200,253.437485 411.805908,254.730392 
	C412.359406,254.998459 414.037048,254.035446 414.411163,253.260605 
	C414.749146,252.560623 414.334137,250.963013 413.693085,250.419876 
	C411.325195,248.413559 408.894257,246.365753 406.177521,244.911987 
	C401.075226,242.181747 400.590149,237.642044 401.398743,232.935913 
	C402.175262,228.416519 405.819305,225.964371 410.002319,224.981644 
	C412.510223,224.392441 415.324310,224.637222 417.924652,225.021774 
	C421.745453,225.586823 425.459961,228.839813 429.363342,225.006210 
	C429.660400,224.714493 431.276855,225.766159 432.304840,226.203964 
	C431.588013,228.548615 430.987518,230.557419 430.359711,232.557632 
	C428.714966,237.797882 428.509338,237.862747 423.497559,234.477936 
z"/>
<path fill="#F3F3F3" opacity="1.000000" stroke="none" 
	d="
M307.010437,224.940186 
	C309.731262,224.966934 311.998993,224.966934 313.432220,224.966934 
	C310.947418,232.867386 308.501251,240.612930 306.079712,248.366180 
	C305.443207,250.404068 305.233429,252.670364 304.189270,254.459091 
	C303.143005,256.251434 301.109863,258.976562 299.845154,258.805756 
	C297.502655,258.489441 294.527802,256.871460 293.371857,254.888672 
	C290.067169,249.220093 287.542664,243.096664 284.071991,235.809860 
	C283.985504,244.092102 277.890869,250.016632 281.013885,258.483063 
	C277.794708,258.759583 274.625641,259.031769 271.206879,259.325439 
	C276.302826,248.344620 279.643280,237.411636 280.950470,224.912674 
	C283.500366,224.912674 287.222900,224.700272 290.893097,225.045120 
	C291.961548,225.145508 293.194916,226.669846 293.813080,227.829178 
	C296.384125,232.651031 298.749207,237.582748 301.672974,242.505417 
	C302.321899,236.821411 307.806305,232.155182 304.663300,225.773071 
	C305.294647,225.486526 305.925995,225.199982 307.010437,224.940186 
z"/>
<path fill="#F5F5F5" opacity="1.000000" stroke="none" 
	d="
M62.274818,253.191498 
	C61.798725,257.587402 59.823429,259.296967 55.614426,259.168182 
	C47.187046,258.910309 38.746231,259.091614 30.601528,259.091614 
	C32.646133,253.179489 34.729073,247.784653 36.362385,242.256958 
	C37.995308,236.730652 39.178509,231.071457 40.685410,224.956955 
	C47.990005,224.956955 56.635571,224.850067 65.272659,225.072433 
	C66.564995,225.105728 69.016731,226.988373 68.887741,227.495056 
	C68.211533,230.151352 66.877037,232.640091 65.771286,235.187042 
	C64.346588,234.073044 62.750835,233.111893 61.564816,231.784637 
	C60.909912,231.051743 60.942238,229.704773 60.670597,228.657135 
	C58.041252,228.890442 55.693546,229.098755 52.925194,229.344406 
	C52.053707,232.380859 51.116558,235.646103 50.179409,238.911331 
	C50.433479,239.296234 50.687553,239.681137 50.941624,240.066025 
	C52.479801,239.121918 53.947403,238.021561 55.579109,237.284515 
	C56.821007,236.723557 58.271324,236.623993 59.628914,236.319153 
	C59.666584,237.534058 59.907246,238.786240 59.692593,239.954788 
	C59.397724,241.560028 59.184429,243.566788 58.135658,244.528778 
	C57.242519,245.348022 55.093353,245.354767 53.726429,244.952011 
	C52.205502,244.503845 50.940945,243.185638 49.276379,242.049286 
	C47.954140,246.775299 46.945187,250.381531 45.855286,254.277100 
	C50.009090,255.581909 53.167072,254.814667 55.993080,251.475220 
	C57.511612,249.680847 59.811596,248.547791 61.758968,247.116333 
	C62.218140,247.481171 62.677311,247.846024 63.136482,248.210861 
	C62.879982,249.735168 62.623486,251.259491 62.274818,253.191498 
z"/>
<path fill="#F3F3F3" opacity="1.000000" stroke="none" 
	d="
M366.644623,258.960785 
	C362.667145,259.524323 358.962402,259.769684 355.257690,260.015015 
	C355.127930,259.498993 354.998199,258.982971 354.868439,258.466980 
	C364.257202,251.978409 366.415680,241.047501 370.963226,231.778564 
	C375.042725,223.463501 385.472504,223.072769 391.258636,225.846405 
	C395.282837,227.775452 395.111145,231.858292 394.178436,235.506668 
	C392.794373,240.920715 390.864807,246.193924 389.423859,251.595490 
	C388.847351,253.756638 388.952148,256.099548 388.666840,259.240051 
	C383.941772,259.240051 378.406738,259.240051 373.320984,259.240051 
	C374.816376,255.954941 376.238373,252.831100 377.713654,249.590210 
	C367.543915,246.990631 365.705811,250.500168 366.644623,258.960785 
M379.482208,230.747803 
	C376.348724,235.006866 373.215271,239.265930 369.782745,243.931473 
	C376.518341,245.585648 380.294983,244.568207 380.847809,238.308243 
	C380.931122,237.364883 381.905579,236.405502 381.777069,235.558304 
	C381.527893,233.915619 380.787628,232.347427 379.482208,230.747803 
z"/>
<path fill="#F4F4F4" opacity="1.000000" stroke="none" 
	d="
M201.216583,224.801163 
	C210.140091,225.368530 209.878738,230.705597 208.511887,236.869766 
	C207.411224,241.833405 205.566208,246.627716 204.282944,251.557434 
	C203.827942,253.305344 204.259476,255.272598 203.894638,257.059784 
	C203.681656,258.103210 202.735199,259.781586 202.048386,259.817200 
	C197.346741,260.060852 192.626465,259.945007 187.644028,259.945007 
	C189.517700,255.848984 190.956543,252.703552 192.447586,249.444016 
	C182.961487,247.916611 181.817413,248.859695 181.300125,257.827606 
	C181.258057,258.557007 180.357651,259.810028 179.799454,259.842377 
	C176.493011,260.033997 173.169830,259.936859 169.783722,259.211975 
	C178.835648,251.769257 180.910858,240.919525 185.845230,231.804718 
	C189.041473,225.900604 194.624878,223.061020 201.216583,224.801163 
M195.321381,238.765900 
	C195.764633,237.534668 196.550964,236.305969 196.560013,235.071564 
	C196.570175,233.683289 195.879074,232.289886 195.493027,230.898712 
	C194.019653,231.401199 191.786758,231.470901 191.209503,232.483978 
	C189.137436,236.120438 187.625137,240.075836 185.789703,244.158783 
	C190.490768,245.191238 194.304779,245.326126 195.321381,238.765900 
z"/>
<path fill="#F7F7F7" opacity="1.000000" stroke="none" 
	d="
M173.980743,225.364105 
	C176.187927,228.048355 179.761688,230.700882 179.504654,232.907120 
	C179.079208,236.558777 176.974579,240.977234 174.114441,243.117523 
	C171.135391,245.346786 166.461426,245.777939 162.461273,246.068237 
	C156.192520,246.523163 153.347809,250.891022 156.201096,256.594788 
	C156.399216,256.990814 156.398834,257.486115 156.612198,258.528564 
	C150.629608,258.528564 144.852386,258.528564 139.060547,258.528564 
	C144.897659,248.205109 146.797699,236.784973 149.194153,225.131836 
	C156.739105,225.131836 165.182602,225.131836 173.980743,225.364105 
M166.193466,228.256027 
	C164.766663,228.731476 162.445114,228.835236 162.066727,229.746185 
	C160.357208,233.861694 159.197464,238.205582 157.762115,242.710541 
	C165.549316,242.624283 169.558792,235.748291 166.193466,228.256027 
z"/>
<path fill="#F5F5F5" opacity="1.000000" stroke="none" 
	d="
M79.240448,226.964417 
	C86.245094,223.471161 93.083694,223.877869 98.151779,227.904053 
	C99.505341,227.045517 100.758110,225.847672 102.229301,225.442001 
	C103.465111,225.101242 105.192429,225.322891 106.233917,226.007675 
	C106.761757,226.354721 106.473450,228.333679 106.168510,229.471481 
	C105.614777,231.537552 104.957108,233.621063 103.984703,235.513275 
	C103.366737,236.715775 102.171410,238.305008 101.109047,238.406860 
	C100.008743,238.512314 98.752419,237.036789 97.576355,236.235153 
	C97.454712,236.152252 97.436806,235.931534 97.333748,235.804871 
	C95.734085,233.839096 94.128296,231.878311 92.523926,229.916367 
	C90.151321,232.312073 87.009361,234.331116 85.604454,237.200623 
	C83.918114,240.644943 83.278809,244.789444 83.058441,248.680176 
	C82.957207,250.467606 84.546089,252.944962 86.114975,254.012283 
	C87.072449,254.663681 89.595024,253.494446 91.146889,252.650574 
	C92.558746,251.882812 93.437187,250.059860 94.870697,249.428757 
	C96.107437,248.884293 97.794441,249.362610 99.282394,249.388763 
	C99.048843,250.632019 99.171509,252.114014 98.524170,253.079956 
	C94.199776,259.532776 87.713150,260.899109 80.608795,259.895782 
	C72.538605,258.756073 68.156456,251.278687 70.077324,241.517715 
	C71.203590,235.794571 73.317444,230.302933 79.240448,226.964417 
z"/>
<path fill="#F5F5F5" opacity="1.000000" stroke="none" 
	d="
M217.051315,257.405457 
	C218.194611,255.040558 219.610901,253.196762 220.269028,251.113480 
	C222.496460,244.062668 224.455307,236.926987 226.516815,229.823730 
	C226.210342,229.392029 225.903885,228.960312 225.597412,228.528595 
	C223.689255,229.804001 221.810501,231.126556 219.863922,232.340347 
	C218.212845,233.369904 216.483398,234.273773 214.788620,235.233246 
	C214.270966,233.888733 213.005280,232.259613 213.386673,231.257141 
	C214.262375,228.955292 215.861267,225.185745 217.305832,225.121063 
	C228.092468,224.637985 238.913193,224.891098 249.722916,224.963699 
	C252.649109,224.983337 253.653564,226.363083 252.373428,229.152237 
	C252.102280,229.743027 252.159500,230.520264 251.804855,231.030457 
	C250.644135,232.700302 249.363220,234.286591 248.128525,235.905029 
	C246.744675,234.468262 245.401657,232.988953 243.964050,231.608154 
	C242.816849,230.506287 241.554367,229.524445 239.824814,228.046432 
	C237.330688,236.922440 235.184143,244.487930 233.087616,252.067291 
	C232.455185,254.353638 232.675354,257.696198 231.217300,258.718597 
	C229.532486,259.900024 226.411224,259.230225 223.939606,259.035248 
	C221.601212,258.850769 219.296417,258.240051 217.051315,257.405457 
z"/>
<path fill="#F6F6F6" opacity="1.000000" stroke="none" 
	d="
M268.440857,235.628204 
	C266.960876,240.925171 265.525513,245.815628 264.356842,250.768997 
	C263.945526,252.512314 264.345306,254.434174 264.067810,256.226990 
	C263.919373,257.185730 263.149597,258.804749 262.605713,258.827576 
	C257.744202,259.031860 252.870529,258.946655 247.834534,258.946655 
	C253.256622,247.876694 256.227448,237.119705 257.880768,225.320343 
	C262.148590,225.320343 267.477600,225.320343 272.421661,225.320343 
	C271.209625,228.460556 269.900024,231.853500 268.440857,235.628204 
z"/>
<path fill="#0A0A0A" opacity="1.000000" stroke="none" 
	d="
M122.322662,255.252655 
	C119.198105,257.504486 116.790749,257.019165 117.223648,253.328369 
	C118.293259,244.209091 119.439842,234.943237 128.196747,227.149704 
	C128.976379,230.105331 130.430359,232.444260 129.907150,234.190903 
	C127.799561,241.226639 125.081207,248.079437 122.322662,255.252655 
z"/>
<path fill="#171717" opacity="1.000000" stroke="none" 
	d="
M379.866516,230.748093 
	C380.787628,232.347427 381.527893,233.915619 381.777069,235.558304 
	C381.905579,236.405502 380.931122,237.364883 380.847809,238.308243 
	C380.294983,244.568207 376.518341,245.585648 369.782745,243.931473 
	C373.215271,239.265930 376.348724,235.006866 379.866516,230.748093 
z"/>
<path fill="#161616" opacity="1.000000" stroke="none" 
	d="
M195.263672,239.163086 
	C194.304779,245.326126 190.490768,245.191238 185.789703,244.158783 
	C187.625137,240.075836 189.137436,236.120438 191.209503,232.483978 
	C191.786758,231.470901 194.019653,231.401199 195.493027,230.898712 
	C195.879074,232.289886 196.570175,233.683289 196.560013,235.071564 
	C196.550964,236.305969 195.764633,237.534668 195.263672,239.163086 
z"/>
<path fill="#131313" opacity="1.000000" stroke="none" 
	d="
M166.501282,228.508240 
	C169.558792,235.748291 165.549316,242.624283 157.762115,242.710541 
	C159.197464,238.205582 160.357208,233.861694 162.066727,229.746185 
	C162.445114,228.835236 164.766663,228.731476 166.501282,228.508240 
z"/>
</svg>