<?xml version="1.0" standalone="no"?>
<!DOCTYPE svg PUBLIC "-//W3C//DTD SVG 20010904//EN"
 "http://www.w3.org/TR/2001/REC-SVG-20010904/DTD/svg10.dtd">
<svg version="1.0" xmlns="http://www.w3.org/2000/svg"
 width="460.000000pt" height="332.000000pt" viewBox="0 0 460.000000 332.000000"
 preserveAspectRatio="xMidYMid meet">

<g transform="translate(0.000000,332.000000) scale(0.100000,-0.100000)"
fill="#000000" stroke="none">
<path d="M1755 3224 c-154 -20 -257 -67 -364 -170 -92 -87 -171 -204 -171
-251 0 -44 -25 -107 -62 -159 -47 -66 -135 -128 -283 -200 -72 -35 -147 -78
-168 -95 -66 -54 -71 -105 -15 -139 39 -24 105 -112 119 -161 17 -55 74 -118
133 -145 57 -27 137 -31 227 -13 30 6 63 12 74 14 170 29 284 49 344 61 109
22 156 -1 202 -101 31 -65 39 -114 59 -360 6 -71 13 -148 15 -170 2 -22 7 -67
9 -100 8 -92 17 -135 27 -135 5 0 7 24 5 53 -3 28 -14 165 -26 302 -30 358
-52 443 -130 509 -55 46 -51 46 -572 -46 -111 -19 -134 -20 -174 -10 -71 19
-129 64 -154 119 -49 109 -68 138 -117 182 -29 25 -53 53 -53 62 0 30 78 88
197 145 135 64 189 99 257 163 55 52 106 149 106 200 0 50 70 162 154 246 165
164 372 213 631 148 73 -18 110 -36 157 -79 55 -49 127 -82 197 -90 58 -6 66
-10 112 -57 28 -28 66 -79 85 -113 43 -76 88 -208 74 -212 -30 -10 -160 -124
-217 -191 -71 -83 -159 -212 -194 -284 -27 -55 -35 -52 -74 34 -50 113 -67
186 -72 327 -6 143 6 253 37 335 10 26 15 47 11 47 -4 0 -21 -17 -38 -38 -141
-175 -135 -433 17 -759 39 -85 41 -94 28 -115 -26 -41 -99 -253 -114 -330 -2
-13 -6 -34 -9 -48 -26 -118 -28 -321 -4 -336 17 -10 48 39 49 76 0 44 34 250
50 310 27 102 84 253 141 370 137 284 276 462 409 523 141 64 227 142 333 305
51 78 63 90 71 75 21 -41 183 -282 223 -336 24 -31 71 -75 103 -97 78 -53 127
-118 135 -178 10 -78 14 -89 40 -120 14 -17 63 -56 109 -87 116 -79 136 -132
88 -235 -11 -25 -33 -78 -48 -119 -18 -51 -40 -87 -70 -119 l-43 -45 -53 8
c-29 4 -104 9 -167 11 -107 3 -117 2 -175 -25 -111 -51 -201 -175 -201 -276 1
-103 16 -205 31 -205 15 0 13 35 -7 156 -10 57 -9 64 20 125 42 89 91 143 159
175 49 24 70 28 147 28 50 0 127 -3 172 -8 75 -8 83 -7 109 13 44 35 83 95
108 168 13 37 33 88 45 113 45 99 17 176 -92 250 -111 76 -137 106 -147 177
-4 33 -15 73 -23 89 -15 29 -86 99 -166 163 -28 22 -90 105 -178 238 l-135
204 -43 -75 c-93 -164 -213 -283 -345 -343 -135 -62 -283 -240 -412 -498 -119
-238 -185 -456 -204 -678 -3 -42 -10 -80 -15 -83 -5 -3 -9 37 -9 88 1 156 46
349 124 530 l35 80 -44 88 c-46 94 -87 211 -104 298 -18 89 -14 231 9 306 21
65 47 97 29 34 -17 -60 -22 -211 -10 -303 17 -130 62 -261 119 -347 l25 -39
32 58 c113 210 249 375 386 470 l57 39 -22 70 c-33 100 -87 202 -141 262 -58
65 -75 74 -147 83 -68 8 -127 37 -183 88 -41 37 -118 70 -210 89 -58 13 -187
21 -230 16z"/>
<path d="M1053 991 c-124 -32 -213 -162 -201 -293 4 -42 11 -57 36 -79 63 -56
163 -60 256 -11 81 44 137 142 140 244 1 64 -20 103 -68 126 -34 17 -121 24
-163 13z m77 -97 c0 -43 -34 -163 -62 -217 -15 -29 -24 -38 -41 -35 -19 3 -22
9 -21 48 2 52 48 197 71 223 9 9 24 17 35 17 14 0 18 -8 18 -36z"/>
<path d="M1844 989 c-46 -13 -69 -44 -144 -197 -56 -114 -75 -144 -100 -157
-20 -10 -30 -22 -28 -33 5 -24 145 -31 154 -7 4 8 1 21 -5 29 -9 11 -8 22 6
50 15 32 21 36 55 36 31 0 38 -4 38 -19 0 -11 -12 -33 -26 -50 -44 -52 -29
-62 83 -59 l97 3 2 55 c1 30 13 91 28 135 34 105 34 158 1 189 -35 33 -100 43
-161 25z m36 -98 c0 -3 -9 -31 -19 -61 -16 -50 -21 -55 -49 -58 -18 -2 -32 1
-32 6 0 17 40 101 56 116 13 14 44 12 44 -3z"/>
<path d="M3922 991 c-52 -13 -70 -37 -144 -189 -48 -96 -79 -149 -97 -160 -33
-21 -40 -32 -34 -49 4 -10 23 -13 77 -11 l71 3 -3 38 c-4 55 19 87 63 87 44 0
47 -24 9 -69 -44 -52 -29 -62 83 -59 l98 3 -3 36 c-1 19 9 71 23 115 45 139
46 208 2 237 -30 19 -102 28 -145 18z m23 -91 c3 -5 -2 -37 -11 -70 -16 -58
-18 -60 -50 -60 -19 0 -34 5 -34 10 0 16 51 114 64 122 15 10 24 10 31 -2z"/>
<path d="M119 983 c-1 -5 -3 -28 -4 -53 -1 -25 -4 -54 -8 -65 -3 -11 -18 -63
-32 -115 -15 -52 -35 -104 -46 -116 -10 -11 -19 -28 -19 -37 0 -16 15 -17 171
-15 170 3 172 3 190 28 10 14 21 44 25 68 l7 42 -35 0 c-26 0 -42 -8 -68 -35
-23 -24 -43 -35 -63 -35 -26 0 -29 2 -23 26 4 15 10 39 13 55 7 38 31 45 45
13 9 -18 18 -24 36 -22 21 2 29 13 44 58 10 30 16 60 13 67 -7 20 -44 16 -73
-8 -32 -24 -37 -15 -22 40 10 39 13 41 50 41 35 0 39 -3 45 -30 8 -37 37 -55
64 -41 16 9 23 26 37 93 2 9 -3 24 -12 32 -13 13 -44 16 -175 16 -87 0 -160
-3 -160 -7z"/>
<path d="M585 976 c-79 -34 -130 -135 -123 -245 3 -60 8 -75 30 -98 37 -39 77
-52 151 -50 73 2 125 30 154 84 14 26 15 34 4 47 -20 24 -40 19 -82 -19 -74
-67 -119 -35 -98 68 19 88 56 147 93 147 14 0 30 -15 49 -46 23 -38 32 -45 53
-42 23 3 30 13 51 71 13 38 22 75 19 83 -7 18 -56 18 -83 -1 -19 -13 -24 -13
-50 0 -35 18 -127 19 -168 1z"/>
<path d="M1335 981 c-3 -6 -3 -21 0 -32 11 -33 -63 -288 -92 -320 -36 -39 -16
-49 99 -49 80 0 100 3 105 15 3 9 -2 24 -11 34 -14 16 -15 23 -4 57 l13 39 75
5 c89 6 137 30 162 80 29 56 24 111 -13 146 l-30 29 -149 3 c-98 2 -150 0
-155 -7z m215 -91 c0 -43 -26 -89 -57 -101 -14 -5 -27 -8 -29 -6 -3 2 16 76
31 125 3 6 16 12 30 12 21 0 25 -5 25 -30z"/>
<path d="M2084 965 c-23 -35 -31 -105 -13 -116 22 -13 51 0 85 38 16 20 35 34
41 32 17 -6 -59 -265 -87 -294 -12 -13 -19 -28 -15 -34 4 -7 44 -11 99 -11
102 0 127 11 107 48 -10 19 -7 34 50 225 13 42 26 67 35 67 8 0 14 -6 14 -14
0 -8 11 -27 24 -43 21 -24 27 -26 49 -16 18 9 28 24 37 62 20 84 28 81 -204
81 l-206 0 -16 -25z"/>
<path d="M2546 974 c-4 -9 -2 -22 3 -28 15 -18 -65 -297 -91 -317 -13 -10 -19
-23 -15 -33 6 -14 21 -16 104 -14 l98 3 1 50 c1 74 61 274 93 308 35 39 19 47
-95 47 -76 0 -93 -3 -98 -16z"/>
<path d="M2804 976 c-3 -8 -1 -22 4 -32 6 -11 5 -34 -5 -68 -8 -28 -23 -85
-34 -126 -11 -41 -32 -92 -46 -112 -14 -20 -22 -42 -18 -47 8 -15 108 -14 123
1 8 8 8 17 1 30 -8 14 -5 42 12 104 12 46 25 84 28 84 3 0 26 -46 50 -101 47
-105 68 -129 112 -129 27 0 69 39 69 64 0 38 76 275 95 296 34 38 22 50 -46
50 -63 0 -80 -12 -61 -46 9 -16 -1 -72 -26 -134 -9 -23 -13 -19 -57 70 -26 52
-53 98 -59 102 -6 4 -39 8 -74 8 -45 0 -64 -4 -68 -14z"/>
<path d="M3265 980 c-3 -5 -3 -19 0 -32 9 -36 -70 -299 -96 -320 -12 -11 -19
-24 -15 -33 5 -13 23 -15 103 -13 l98 3 -2 30 c0 17 5 54 13 83 l15 52 50 0
c47 0 49 -1 39 -20 -6 -11 -9 -20 -6 -20 10 0 -27 -75 -42 -86 -9 -6 -13 -18
-9 -28 6 -14 20 -16 104 -14 l98 3 -3 34 c-4 52 66 291 94 322 36 38 17 49
-92 49 -76 0 -93 -3 -98 -16 -4 -9 -2 -22 3 -28 6 -7 4 -32 -6 -69 l-16 -57
-49 0 c-26 0 -48 1 -48 3 1 23 35 107 51 123 12 12 18 27 14 33 -8 14 -191 15
-200 1z"/>
<path d="M4231 972 c-47 -25 -74 -76 -67 -127 5 -40 18 -55 117 -136 22 -18
30 -31 26 -42 -12 -31 -47 -18 -97 33 -50 52 -56 55 -77 42 -13 -8 -53 -114
-53 -138 0 -24 47 -28 76 -7 26 19 27 19 62 1 76 -38 198 -12 235 51 21 37 22
99 1 130 -9 12 -42 39 -73 59 -77 48 -86 63 -51 82 17 9 27 4 69 -35 63 -59
84 -59 105 2 24 69 21 103 -7 103 -12 0 -32 -7 -45 -15 -19 -14 -24 -14 -51 0
-41 21 -128 19 -170 -3z"/>
</g>
</svg>
