<svg version="1.1" id="Layer_1" xmlns="http://www.w3.org/2000/svg" xmlns:xlink="http://www.w3.org/1999/xlink" x="0px" y="0px"
	 width="100%" viewBox="0 0 460 332" enable-background="new 0 0 460 332" xml:space="preserve">
<path fill="#FEFEFE" opacity="1.000000" stroke="none" 
	d="
M299.000000,333.000000 
	C199.364624,333.000000 100.229263,333.000000 1.046947,333.000000 
	C1.046947,222.399582 1.046947,111.799126 1.046947,1.099337 
	C154.218658,1.099337 307.437408,1.099337 460.828064,1.099337 
	C460.828064,111.666451 460.828064,222.333206 460.828064,333.000000 
	C407.132538,333.000000 353.316254,333.000000 299.000000,333.000000 
M193.838745,223.061768 
	C230.686188,223.017761 267.533630,222.973740 305.150177,223.058487 
	C305.577759,222.023926 306.443085,220.953369 306.361481,219.960678 
	C305.850555,213.746704 304.196411,207.477112 304.675323,201.363373 
	C305.596741,189.601074 317.623657,176.775162 329.378937,175.311249 
	C336.891357,174.375717 344.764404,174.859039 352.297241,175.944824 
	C361.364410,177.251785 366.363159,175.868301 371.403259,168.184082 
	C372.843750,165.987823 374.032990,163.586746 375.042999,161.157166 
	C376.740265,157.074463 377.762360,152.656555 379.845093,148.798935 
	C385.950928,137.489639 383.848145,129.024689 373.001190,121.783081 
	C368.615479,118.855095 364.404022,115.583588 360.520813,112.023842 
	C358.840057,110.483101 357.181244,107.789604 357.240295,105.667786 
	C357.561462,94.122253 350.391174,87.634605 342.219299,81.433250 
	C338.592712,78.681137 335.219299,75.410042 332.373901,71.859299 
	C328.556335,67.095428 325.304871,61.870159 321.913300,56.774452 
	C316.843811,49.157791 311.864014,41.481445 306.625732,33.494518 
	C298.842072,52.928284 283.579926,68.296341 262.512939,77.055794 
	C264.912018,75.112801 267.311066,73.169800 269.744812,71.198723 
	C269.545929,70.475143 269.303070,69.521645 269.021912,68.579575 
	C265.062347,55.311237 260.008514,42.592598 248.842682,33.583145 
	C246.537506,31.723156 243.124954,30.779222 240.093399,30.368874 
	C233.353119,29.456505 226.990524,27.562742 222.326981,22.615543 
	C218.267914,18.309591 213.495178,15.849895 208.042358,14.274833 
	C191.947556,9.625802 175.865738,8.040802 159.108597,14.744309 
	C142.631912,21.158661 131.899902,33.559998 123.813667,48.688866 
	C123.295898,49.657597 122.958740,50.840775 122.929909,51.934544 
	C122.665955,61.946846 117.919296,69.823982 110.114143,75.330772 
	C102.358978,80.802284 93.721786,85.013649 85.546318,89.902931 
	C80.056435,93.186104 74.259407,96.166138 69.405083,100.241089 
	C64.759315,104.140953 65.216377,108.903557 70.481133,112.332397 
	C76.027840,115.944885 79.921913,121.290970 82.019150,127.897346 
	C84.773933,136.575012 90.709305,142.129181 100.306709,144.794601 
	C104.623421,144.845215 109.039429,145.513382 113.239395,144.837997 
	C130.117569,142.123932 146.971283,139.209579 163.743149,135.907578 
	C170.102097,134.655640 174.491013,137.116928 177.589752,141.825989 
	C179.991928,145.476501 182.015747,149.791183 182.723099,154.056824 
	C184.280823,163.450500 184.920959,172.997665 185.896957,182.486160 
	C187.208969,195.241608 188.431030,208.006973 189.898727,220.744217 
	C189.994370,221.574249 191.855194,222.200851 193.838745,223.061768 
M39.804428,248.068848 
	C41.311062,248.063614 43.952232,248.488022 44.142914,247.984467 
	C45.534531,244.309570 46.603493,240.479492 47.314995,236.613846 
	C47.428375,235.997894 45.252945,234.248474 44.111553,234.225601 
	C34.305283,234.028976 24.491444,234.022308 14.686672,234.250916 
	C13.784917,234.271957 12.368444,236.228882 12.167697,237.447754 
	C11.709378,240.230484 12.569989,243.378372 11.628993,245.906815 
	C8.409259,254.558258 8.995091,264.640808 2.011975,271.912140 
	C1.617141,272.323273 1.960898,273.443726 1.960898,274.645081 
	C12.078401,274.645081 21.854855,274.644135 31.631310,274.645447 
	C37.863537,274.646271 39.981201,272.196869 41.023487,264.625549 
	C41.785400,259.090881 36.836578,261.581329 34.930126,260.232788 
	C35.959713,255.953720 36.917618,251.972565 38.477596,247.987335 
	C38.678188,247.980881 38.878780,247.974442 39.804428,248.068848 
M336.121002,268.265930 
	C339.736481,257.177063 339.736572,257.176025 347.828308,257.813904 
	C347.981628,257.825989 348.125610,257.957001 349.284973,258.547363 
	C347.189270,262.570404 345.065918,266.600342 342.996216,270.657562 
	C342.571198,271.490723 341.831299,272.796204 342.144287,273.231842 
	C342.679413,273.976746 343.922791,274.567139 344.884796,274.591675 
	C349.874939,274.718811 354.876129,274.774231 359.859039,274.543213 
	C360.951111,274.492554 362.996796,272.733704 362.896729,272.503510 
	C360.394348,266.747894 363.580505,261.696472 365.208008,256.746094 
	C367.351990,250.224838 367.041840,242.758667 372.870148,237.422302 
	C375.018890,235.454895 372.479034,234.107788 370.137848,234.103668 
	C365.477234,234.095444 360.816467,234.127869 356.156097,234.094223 
	C352.811798,234.070099 351.809052,235.172684 352.927032,238.681808 
	C355.075806,245.426147 350.907471,250.913773 344.093658,250.856628 
	C343.203247,250.849167 342.313507,250.764969 340.016663,250.639404 
	C342.635773,245.819733 344.786926,241.925888 346.860382,237.991074 
	C347.276154,237.202042 347.873322,235.844406 347.551117,235.471893 
	C346.922150,234.744797 345.711792,234.184601 344.726379,234.158783 
	C339.902740,234.032486 335.073425,234.147995 330.247162,234.089249 
	C327.752960,234.058884 326.582367,234.870285 326.907715,237.633026 
	C327.181946,239.961700 327.388214,242.466278 326.829437,244.693512 
	C325.192261,251.219284 323.317230,257.698273 321.197021,264.083252 
	C320.413544,266.442688 318.649292,268.467896 317.408997,270.688324 
	C316.892761,271.612488 316.576752,272.648468 316.169708,273.633606 
	C317.044861,273.976044 317.914246,274.595856 318.796143,274.614197 
	C323.287964,274.707703 327.782990,274.644836 332.276917,274.638062 
	C337.651489,274.629974 338.070892,274.014038 336.121002,268.265930 
M129.805984,246.714661 
	C128.865601,239.881165 125.903542,235.216263 118.394981,233.785172 
	C100.901917,230.451141 87.671906,241.936981 86.072571,259.079132 
	C85.286842,267.500885 88.629265,272.739288 95.241379,274.683655 
	C101.483475,276.519257 107.587143,275.903168 113.491463,273.287018 
	C124.644577,268.345154 128.377869,258.669922 129.805984,246.714661 
M316.035950,249.660263 
	C317.893219,245.758041 319.614319,241.782532 321.659912,237.981674 
	C322.847107,235.775757 322.690277,234.374130 320.105255,234.154938 
	C317.293152,233.916473 314.410645,233.874161 311.628876,234.256317 
	C310.655151,234.390106 308.956818,236.471344 309.169678,236.930084 
	C312.072113,243.185883 307.562256,248.219696 306.710266,254.772552 
	C304.266907,250.047760 301.695221,246.286804 300.315735,242.130203 
	C298.109375,235.482224 294.068756,233.285736 287.243500,233.979752 
	C281.187103,234.595581 281.143219,234.108841 282.446838,240.031418 
	C282.537506,240.443283 282.583313,240.940323 282.439545,241.317535 
	C278.617859,251.344574 278.865723,262.834351 271.560242,271.626312 
	C271.142120,272.129486 271.251373,273.070831 271.043671,274.195435 
	C272.538025,274.375885 273.632538,274.669800 274.706207,274.607056 
	C277.788177,274.426971 280.861725,274.102570 283.938568,273.834900 
	C283.639771,271.767212 283.338104,269.699921 283.047791,267.631042 
	C283.025482,267.472046 283.060059,267.294891 283.107025,267.137787 
	C284.583313,262.198425 286.064423,257.260498 287.824127,251.390671 
	C290.952545,258.056213 293.585449,263.834717 296.371246,269.538544 
	C298.058960,272.994080 300.646027,276.389221 304.737640,274.776001 
	C307.303284,273.764404 309.732239,270.682922 310.805939,267.969574 
	C313.035126,262.336395 314.321075,256.329956 316.035950,249.660263 
M453.397125,236.709030 
	C451.932465,235.840546 449.551086,233.914246 449.144409,234.266663 
	C444.927582,237.920959 441.092072,235.142822 437.018311,234.204758 
	C434.486542,233.621765 431.663971,233.638138 429.083832,234.063766 
	C423.355530,235.008698 419.158752,237.883667 417.511597,243.961029 
	C415.982697,249.602051 418.187927,253.646118 422.309418,256.979980 
	C424.484619,258.739471 427.225983,259.847565 429.224548,261.759125 
	C430.476746,262.956818 430.823303,265.101349 431.576172,266.821075 
	C429.464996,266.716492 426.901642,267.324127 425.349579,266.338806 
	C423.076416,264.895721 421.649536,262.185608 419.642212,260.242493 
	C416.449005,257.151367 413.615021,257.754181 412.059845,261.805756 
	C411.114777,264.267914 410.282013,266.804504 409.745392,269.379852 
	C409.445099,270.821045 409.456299,273.524689 410.014954,273.723114 
	C411.697662,274.320801 413.795776,274.300659 415.580109,273.879028 
	C416.911591,273.564423 418.007446,272.252808 419.298828,271.319702 
	C425.124451,275.415649 431.489777,276.063904 438.181305,274.109436 
	C445.055603,272.101624 448.538818,266.992920 448.025970,259.935425 
	C447.634735,254.551178 443.546631,252.188766 439.717621,249.563126 
	C436.960876,247.672745 434.280060,245.671661 431.442810,243.631866 
	C434.045654,240.163040 436.363647,240.071869 438.707245,242.149719 
	C440.683411,243.901855 442.307770,246.049713 444.276703,247.811371 
	C447.099640,250.337097 449.876526,249.594696 451.067780,246.005356 
	C451.996033,243.208481 452.637299,240.316345 453.397125,236.709030 
M130.737946,274.635956 
	C134.737259,274.639832 138.738770,274.717529 142.734375,274.597931 
	C143.788895,274.566376 145.274643,274.206757 145.729828,273.477905 
	C146.104172,272.878418 145.564423,271.150543 144.879578,270.541290 
	C141.473434,267.510956 144.738327,264.726776 145.328873,262.040955 
	C145.534561,261.105499 148.421539,260.542908 150.160751,260.203613 
	C154.635544,259.330566 159.444077,259.409058 163.584686,257.762787 
	C169.556412,255.388474 172.608261,247.488678 170.946793,241.365555 
	C169.769135,237.025406 164.623108,234.126633 158.051361,234.116913 
	C152.052292,234.108017 146.052536,234.166092 140.054337,234.092468 
	C136.149323,234.044556 132.012787,233.553055 134.901276,239.723251 
	C135.203171,240.368149 134.988693,241.419296 134.694382,242.153976 
	C130.606216,252.358856 130.955002,264.179199 122.312576,274.006683 
	C125.505371,274.274841 127.664886,274.456207 130.737946,274.635956 
M204.044434,240.142944 
	C202.022003,238.139557 200.326263,235.042511 197.920074,234.323715 
	C187.951462,231.345764 180.632309,234.238815 175.756149,243.473892 
	C170.746643,252.961533 169.272842,264.723755 158.743683,270.967194 
	C156.762009,272.142273 157.770523,274.368134 160.227356,274.630249 
	C162.526276,274.875519 164.898117,274.854279 167.196182,274.589050 
	C170.349228,274.225159 176.970490,276.782806 172.407272,269.022125 
	C172.183884,268.642181 172.662781,267.816040 172.874329,267.218842 
	C174.666611,262.159515 176.206345,261.545349 183.664719,263.454071 
	C182.165054,265.809967 180.762268,267.916229 179.468918,270.087677 
	C178.848511,271.129242 178.435135,272.294098 177.927979,273.403137 
	C179.096802,273.815674 180.253403,274.537079 181.436676,274.583862 
	C185.253799,274.734772 189.080765,274.623993 192.903854,274.639313 
	C196.560791,274.653992 201.108734,275.602966 197.890381,269.186981 
	C197.487518,268.383881 198.219666,266.992828 198.469269,265.883972 
	C200.337296,257.585602 202.216248,249.289688 204.044434,240.142944 
M387.787079,269.149384 
	C386.869843,270.584320 385.952576,272.019257 385.035339,273.454193 
	C386.701080,273.850006 388.353149,274.497131 390.035431,274.588440 
	C393.353058,274.768494 396.687469,274.637939 400.014923,274.640442 
	C403.633667,274.643158 408.222626,275.637756 405.055542,269.198944 
	C404.651855,268.378174 405.317871,266.964172 405.634674,265.867249 
	C407.279327,260.172577 409.007843,254.502045 410.637848,248.803299 
	C412.696045,241.607697 411.088776,236.075974 405.712860,234.447250 
	C396.545959,231.669998 388.870575,232.678574 383.204224,242.944397 
	C377.915161,252.526749 376.554932,264.569275 366.015198,271.008667 
	C365.731659,271.181915 366.602234,274.422516 367.067291,274.457275 
	C371.037506,274.753967 375.047546,274.779938 379.021759,274.520294 
	C379.744293,274.473083 381.027405,272.669037 380.918243,271.822174 
	C379.784027,263.023590 381.190125,261.551788 390.308075,263.111633 
	C389.628754,264.991852 388.981537,266.783203 387.787079,269.149384 
M211.590622,274.710876 
	C216.413589,274.683716 221.240967,274.517914 226.058228,274.670776 
	C230.333649,274.806488 233.272720,274.310669 230.617920,268.964355 
	C230.260056,268.243652 230.673355,267.049957 230.927292,266.129852 
	C232.942734,258.827087 234.968948,251.526703 237.093185,244.255203 
	C237.425919,243.116211 238.270996,242.126907 238.879181,241.068405 
	C239.817184,242.021332 240.754974,242.974472 241.693253,243.927124 
	C243.337906,245.597046 244.834869,248.447266 246.660309,248.676132 
	C249.875702,249.079193 251.054321,245.919662 251.800507,243.090164 
	C252.137283,241.813110 252.745560,240.588867 252.940323,239.296890 
	C253.422256,236.099854 252.971695,233.924149 248.706512,234.025208 
	C238.233902,234.273392 227.751419,234.105438 217.272919,234.105774 
	C209.541779,234.106018 207.667816,235.621094 206.945435,243.252960 
	C206.788666,244.909409 207.479782,247.584763 208.617126,248.172974 
	C209.867386,248.819611 212.242218,247.905853 213.828323,247.090622 
	C215.048920,246.463257 215.706055,244.824387 216.796951,243.837906 
	C218.088364,242.670090 219.576553,241.719849 222.067398,239.865250 
	C220.742630,244.937012 220.158264,248.505997 218.876221,251.803741 
	C216.248734,258.562378 216.733444,266.600128 210.699387,272.010468 
	C210.393753,272.284515 210.878769,273.440277 211.590622,274.710876 
M82.496719,251.024323 
	C87.877930,249.794510 86.740837,244.556580 88.369751,241.103394 
	C89.220924,239.298981 88.762077,236.876633 88.894905,234.733368 
	C86.392853,234.964386 83.887627,235.166382 81.390068,235.438583 
	C80.134514,235.575424 78.646996,236.393173 77.681595,235.964142 
	C61.525955,228.784561 48.666958,239.190048 46.863003,254.772110 
	C46.221691,260.311584 46.080616,266.011139 50.885269,270.534332 
	C58.963005,278.138855 75.615929,276.034149 80.847176,266.293793 
	C81.576546,264.935730 80.538292,262.628387 80.318298,260.760468 
	C78.433563,261.101929 76.334587,261.038513 74.720970,261.892365 
	C72.903625,262.854004 71.704048,264.945404 69.916595,266.009003 
	C65.929359,268.381622 61.552818,266.428619 62.362843,262.163025 
	C63.556648,255.876465 65.942230,249.624161 68.927528,243.938675 
	C70.855469,240.266922 73.715797,241.048615 76.174095,244.579132 
	C77.783752,246.890854 79.850914,248.884003 82.496719,251.024323 
M260.829651,234.105255 
	C257.181854,234.040421 253.638107,233.903992 256.231506,239.440582 
	C256.755096,240.558380 256.148743,242.334946 255.765869,243.725922 
	C253.894882,250.523239 252.077713,257.343018 249.902527,264.044800 
	C249.149994,266.363342 247.363632,268.333801 246.162064,270.524994 
	C245.647537,271.463318 245.132584,272.579193 245.201263,273.574127 
	C245.229675,273.985596 246.782913,274.579041 247.652954,274.597168 
	C252.300598,274.694275 256.954620,274.529083 261.600281,274.665070 
	C265.217682,274.770935 267.275574,274.169525 265.226929,269.904633 
	C264.752441,268.916809 265.237091,267.289734 265.649139,266.082733 
	C269.137665,255.864639 269.097198,244.369812 276.959259,235.730713 
	C276.869232,235.208817 276.779236,234.686920 276.689240,234.165024 
	C271.712036,234.145187 266.734863,234.125351 260.829651,234.105255 
z"/>
<path fill="#080808" opacity="1.000000" stroke="none" 
	d="
M336.111328,268.640991 
	C338.070892,274.014038 337.651489,274.629974 332.276917,274.638062 
	C327.782990,274.644836 323.287964,274.707703 318.796143,274.614197 
	C317.914246,274.595856 317.044861,273.976044 316.169708,273.633606 
	C316.576752,272.648468 316.892761,271.612488 317.408997,270.688324 
	C318.649292,268.467896 320.413544,266.442688 321.197021,264.083252 
	C323.317230,257.698273 325.192261,251.219284 326.829437,244.693512 
	C327.388214,242.466278 327.181946,239.961700 326.907715,237.633026 
	C326.582367,234.870285 327.752960,234.058884 330.247162,234.089249 
	C335.073425,234.147995 339.902740,234.032486 344.726379,234.158783 
	C345.711792,234.184601 346.922150,234.744797 347.551117,235.471893 
	C347.873322,235.844406 347.276154,237.202042 346.860382,237.991074 
	C344.786926,241.925888 342.635773,245.819733 340.016663,250.639404 
	C342.313507,250.764969 343.203247,250.849167 344.093658,250.856628 
	C350.907471,250.913773 355.075806,245.426147 352.927032,238.681808 
	C351.809052,235.172684 352.811798,234.070099 356.156097,234.094223 
	C360.816467,234.127869 365.477234,234.095444 370.137848,234.103668 
	C372.479034,234.107788 375.018890,235.454895 372.870148,237.422302 
	C367.041840,242.758667 367.351990,250.224838 365.208008,256.746094 
	C363.580505,261.696472 360.394348,266.747894 362.896729,272.503510 
	C362.996796,272.733704 360.951111,274.492554 359.859039,274.543213 
	C354.876129,274.774231 349.874939,274.718811 344.884796,274.591675 
	C343.922791,274.567139 342.679413,273.976746 342.144287,273.231842 
	C341.831299,272.796204 342.571198,271.490723 342.996216,270.657562 
	C345.065918,266.600342 347.189270,262.570404 349.284973,258.547363 
	C348.125610,257.957001 347.981628,257.825989 347.828308,257.813904 
	C339.736572,257.176025 339.736481,257.177063 336.111328,268.640991 
z"/>
<path fill="#040404" opacity="1.000000" stroke="none" 
	d="
M129.804428,247.130737 
	C128.377869,258.669922 124.644577,268.345154 113.491463,273.287018 
	C107.587143,275.903168 101.483475,276.519257 95.241379,274.683655 
	C88.629265,272.739288 85.286842,267.500885 86.072571,259.079132 
	C87.671906,241.936981 100.901917,230.451141 118.394981,233.785172 
	C125.903542,235.216263 128.865601,239.881165 129.804428,247.130737 
M113.698792,247.924057 
	C113.698792,245.366547 113.698792,242.809036 113.698792,240.251541 
	C113.301094,239.956116 112.903389,239.660690 112.505692,239.365280 
	C110.780785,240.777283 108.159653,241.856888 107.490723,243.660538 
	C104.990494,250.401947 102.978447,257.340973 101.158745,264.303986 
	C100.802795,265.666046 102.121758,267.465759 102.668221,269.063629 
	C104.212700,268.151733 106.605484,267.591583 107.154747,266.266998 
	C109.528343,260.542755 111.362450,254.594803 113.698792,247.924057 
z"/>
<path fill="#090909" opacity="1.000000" stroke="none" 
	d="
M37.875526,247.991394 
	C36.917618,251.972565 35.959713,255.953720 34.930126,260.232788 
	C36.836578,261.581329 41.785400,259.090881 41.023487,264.625549 
	C39.981201,272.196869 37.863537,274.646271 31.631310,274.645447 
	C21.854855,274.644135 12.078401,274.645081 1.960898,274.645081 
	C1.960898,273.443726 1.617141,272.323273 2.011975,271.912140 
	C8.995091,264.640808 8.409259,254.558258 11.628993,245.906815 
	C12.569989,243.378372 11.709378,240.230484 12.167697,237.447754 
	C12.368444,236.228882 13.784917,234.271957 14.686672,234.250916 
	C24.491444,234.022308 34.305283,234.028976 44.111553,234.225601 
	C45.252945,234.248474 47.428375,235.997894 47.314995,236.613846 
	C46.603493,240.479492 45.534531,244.309570 44.142914,247.984467 
	C43.952232,248.488022 41.311062,248.063614 39.373253,247.762207 
	C38.676003,247.260223 38.409924,247.064865 38.125336,246.465393 
	C37.792076,241.854248 35.686275,239.397064 31.402399,240.759628 
	C26.431133,242.340820 28.466909,247.231445 27.153938,249.715088 
	C30.748142,248.947266 34.172955,248.215622 37.591534,247.652283 
	C37.585300,247.820557 37.875530,247.991394 37.875526,247.991394 
M33.286404,262.403259 
	C33.479622,262.155212 33.672840,261.907166 33.866062,261.659119 
	C31.159769,260.055511 28.453476,258.451935 25.038364,256.428345 
	C23.984558,260.040100 22.866762,263.871185 21.814119,267.478973 
	C27.563652,269.816193 29.810495,265.654083 33.286404,262.403259 
z"/>
<path fill="#070707" opacity="1.000000" stroke="none" 
	d="
M316.015381,250.068604 
	C314.321075,256.329956 313.035126,262.336395 310.805939,267.969574 
	C309.732239,270.682922 307.303284,273.764404 304.737640,274.776001 
	C300.646027,276.389221 298.058960,272.994080 296.371246,269.538544 
	C293.585449,263.834717 290.952545,258.056213 287.824127,251.390671 
	C286.064423,257.260498 284.583313,262.198425 283.107025,267.137787 
	C283.060059,267.294891 283.025482,267.472046 283.047791,267.631042 
	C283.338104,269.699921 283.639771,271.767212 283.938568,273.834900 
	C280.861725,274.102570 277.788177,274.426971 274.706207,274.607056 
	C273.632538,274.669800 272.538025,274.375885 271.043671,274.195435 
	C271.251373,273.070831 271.142120,272.129486 271.560242,271.626312 
	C278.865723,262.834351 278.617859,251.344574 282.439545,241.317535 
	C282.583313,240.940323 282.537506,240.443283 282.446838,240.031418 
	C281.143219,234.108841 281.187103,234.595581 287.243500,233.979752 
	C294.068756,233.285736 298.109375,235.482224 300.315735,242.130203 
	C301.695221,246.286804 304.266907,250.047760 306.710266,254.772552 
	C307.562256,248.219696 312.072113,243.185883 309.169678,236.930084 
	C308.956818,236.471344 310.655151,234.390106 311.628876,234.256317 
	C314.410645,233.874161 317.293152,233.916473 320.105255,234.154938 
	C322.690277,234.374130 322.847107,235.775757 321.659912,237.981674 
	C319.614319,241.782532 317.893219,245.758041 316.015381,250.068604 
z"/>
<path fill="#050505" opacity="1.000000" stroke="none" 
	d="
M453.401611,237.087799 
	C452.637299,240.316345 451.996033,243.208481 451.067780,246.005356 
	C449.876526,249.594696 447.099640,250.337097 444.276703,247.811371 
	C442.307770,246.049713 440.683411,243.901855 438.707245,242.149719 
	C436.363647,240.071869 434.045654,240.163040 431.442810,243.631866 
	C434.280060,245.671661 436.960876,247.672745 439.717621,249.563126 
	C443.546631,252.188766 447.634735,254.551178 448.025970,259.935425 
	C448.538818,266.992920 445.055603,272.101624 438.181305,274.109436 
	C431.489777,276.063904 425.124451,275.415649 419.298828,271.319702 
	C418.007446,272.252808 416.911591,273.564423 415.580109,273.879028 
	C413.795776,274.300659 411.697662,274.320801 410.014954,273.723114 
	C409.456299,273.524689 409.445099,270.821045 409.745392,269.379852 
	C410.282013,266.804504 411.114777,264.267914 412.059845,261.805756 
	C413.615021,257.754181 416.449005,257.151367 419.642212,260.242493 
	C421.649536,262.185608 423.076416,264.895721 425.349579,266.338806 
	C426.901642,267.324127 429.464996,266.716492 431.576172,266.821075 
	C430.823303,265.101349 430.476746,262.956818 429.224548,261.759125 
	C427.225983,259.847565 424.484619,258.739471 422.309418,256.979980 
	C418.187927,253.646118 415.982697,249.602051 417.511597,243.961029 
	C419.158752,237.883667 423.355530,235.008698 429.083832,234.063766 
	C431.663971,233.638138 434.486542,233.621765 437.018311,234.204758 
	C441.092072,235.142822 444.927582,237.920959 449.144409,234.266663 
	C449.551086,233.914246 451.932465,235.840546 453.401611,237.087799 
z"/>
<path fill="#060606" opacity="1.000000" stroke="none" 
	d="
M130.281174,274.636780 
	C127.664886,274.456207 125.505371,274.274841 122.312576,274.006683 
	C130.955002,264.179199 130.606216,252.358856 134.694382,242.153976 
	C134.988693,241.419296 135.203171,240.368149 134.901276,239.723251 
	C132.012787,233.553055 136.149323,234.044556 140.054337,234.092468 
	C146.052536,234.166092 152.052292,234.108017 158.051361,234.116913 
	C164.623108,234.126633 169.769135,237.025406 170.946793,241.365555 
	C172.608261,247.488678 169.556412,255.388474 163.584686,257.762787 
	C159.444077,259.409058 154.635544,259.330566 150.160751,260.203613 
	C148.421539,260.542908 145.534561,261.105499 145.328873,262.040955 
	C144.738327,264.726776 141.473434,267.510956 144.879578,270.541290 
	C145.564423,271.150543 146.104172,272.878418 145.729828,273.477905 
	C145.274643,274.206757 143.788895,274.566376 142.734375,274.597931 
	C138.738770,274.717529 134.737259,274.639832 130.281174,274.636780 
M155.257324,241.128006 
	C152.244568,239.840302 150.745361,240.867065 150.075195,244.061646 
	C149.354752,247.495895 148.189545,250.836853 147.183762,254.339172 
	C154.028046,253.645630 156.467575,249.968201 155.257324,241.128006 
z"/>
<path fill="#080808" opacity="1.000000" stroke="none" 
	d="
M204.068115,240.567963 
	C202.216248,249.289688 200.337296,257.585602 198.469269,265.883972 
	C198.219666,266.992828 197.487518,268.383881 197.890381,269.186981 
	C201.108734,275.602966 196.560791,274.653992 192.903854,274.639313 
	C189.080765,274.623993 185.253799,274.734772 181.436676,274.583862 
	C180.253403,274.537079 179.096802,273.815674 177.927979,273.403137 
	C178.435135,272.294098 178.848511,271.129242 179.468918,270.087677 
	C180.762268,267.916229 182.165054,265.809967 183.664719,263.454071 
	C176.206345,261.545349 174.666611,262.159515 172.874329,267.218842 
	C172.662781,267.816040 172.183884,268.642181 172.407272,269.022125 
	C176.970490,276.782806 170.349228,274.225159 167.196182,274.589050 
	C164.898117,274.854279 162.526276,274.875519 160.227356,274.630249 
	C157.770523,274.368134 156.762009,272.142273 158.743683,270.967194 
	C169.272842,264.723755 170.746643,252.961533 175.756149,243.473892 
	C180.632309,234.238815 187.951462,231.345764 197.920074,234.323715 
	C200.326263,235.042511 202.022003,238.139557 204.068115,240.567963 
M180.797485,250.434097 
	C180.008774,252.068802 179.220062,253.703506 178.488373,255.220047 
	C184.196182,257.221863 186.461411,254.931152 187.080322,250.078522 
	C187.262634,248.649094 188.213058,247.307602 188.338074,245.884216 
	C188.431503,244.820267 188.057022,243.091202 187.357635,242.749344 
	C186.590347,242.374329 184.733170,242.904984 184.193573,243.650696 
	C182.874146,245.474197 182.040512,247.649231 180.797485,250.434097 
z"/>
<path fill="#070707" opacity="1.000000" stroke="none" 
	d="
M388.060669,268.861969 
	C388.981537,266.783203 389.628754,264.991852 390.308075,263.111633 
	C381.190125,261.551788 379.784027,263.023590 380.918243,271.822174 
	C381.027405,272.669037 379.744293,274.473083 379.021759,274.520294 
	C375.047546,274.779938 371.037506,274.753967 367.067291,274.457275 
	C366.602234,274.422516 365.731659,271.181915 366.015198,271.008667 
	C376.554932,264.569275 377.915161,252.526749 383.204224,242.944397 
	C388.870575,232.678574 396.545959,231.669998 405.712860,234.447250 
	C411.088776,236.075974 412.696045,241.607697 410.637848,248.803299 
	C409.007843,254.502045 407.279327,260.172577 405.634674,265.867249 
	C405.317871,266.964172 404.651855,268.378174 405.055542,269.198944 
	C408.222626,275.637756 403.633667,274.643158 400.014923,274.640442 
	C396.687469,274.637939 393.353058,274.768494 390.035431,274.588440 
	C388.353149,274.497131 386.701080,273.850006 385.035339,273.454193 
	C385.952576,272.019257 386.869843,270.584320 388.060669,268.861969 
M388.602356,255.844727 
	C389.906281,255.844727 391.210175,255.844727 392.553406,255.844727 
	C393.576477,252.432205 394.675293,249.347839 395.359222,246.174057 
	C395.602142,245.046967 394.836090,243.702454 394.530609,242.457199 
	C393.420258,242.906937 391.771820,243.042450 391.293610,243.861343 
	C389.320801,247.239609 387.670959,250.810577 386.043304,254.375015 
	C385.956482,254.565140 387.156219,255.342758 388.602356,255.844727 
z"/>
<path fill="#080808" opacity="1.000000" stroke="none" 
	d="
M211.293137,274.448181 
	C210.878769,273.440277 210.393753,272.284515 210.699387,272.010468 
	C216.733444,266.600128 216.248734,258.562378 218.876221,251.803741 
	C220.158264,248.505997 220.742630,244.937012 222.067398,239.865250 
	C219.576553,241.719849 218.088364,242.670090 216.796951,243.837906 
	C215.706055,244.824387 215.048920,246.463257 213.828323,247.090622 
	C212.242218,247.905853 209.867386,248.819611 208.617126,248.172974 
	C207.479782,247.584763 206.788666,244.909409 206.945435,243.252960 
	C207.667816,235.621094 209.541779,234.106018 217.272919,234.105774 
	C227.751419,234.105438 238.233902,234.273392 248.706512,234.025208 
	C252.971695,233.924149 253.422256,236.099854 252.940323,239.296890 
	C252.745560,240.588867 252.137283,241.813110 251.800507,243.090164 
	C251.054321,245.919662 249.875702,249.079193 246.660309,248.676132 
	C244.834869,248.447266 243.337906,245.597046 241.693253,243.927124 
	C240.754974,242.974472 239.817184,242.021332 238.879181,241.068390 
	C238.270996,242.126907 237.425919,243.116211 237.093185,244.255203 
	C234.968948,251.526703 232.942734,258.827087 230.927292,266.129852 
	C230.673355,267.049957 230.260056,268.243652 230.617920,268.964355 
	C233.272720,274.310669 230.333649,274.806488 226.058228,274.670776 
	C221.240967,274.517914 216.413589,274.683716 211.293137,274.448181 
z"/>
<path fill="#050505" opacity="1.000000" stroke="none" 
	d="
M82.104950,251.022095 
	C79.850914,248.884003 77.783752,246.890854 76.174095,244.579132 
	C73.715797,241.048615 70.855469,240.266922 68.927528,243.938675 
	C65.942230,249.624161 63.556648,255.876465 62.362843,262.163025 
	C61.552818,266.428619 65.929359,268.381622 69.916595,266.009003 
	C71.704048,264.945404 72.903625,262.854004 74.720970,261.892365 
	C76.334587,261.038513 78.433563,261.101929 80.318298,260.760468 
	C80.538292,262.628387 81.576546,264.935730 80.847176,266.293793 
	C75.615929,276.034149 58.963005,278.138855 50.885269,270.534332 
	C46.080616,266.011139 46.221691,260.311584 46.863003,254.772110 
	C48.666958,239.190048 61.525955,228.784561 77.681595,235.964142 
	C78.646996,236.393173 80.134514,235.575424 81.390068,235.438583 
	C83.887627,235.166382 86.392853,234.964386 88.894905,234.733368 
	C88.762077,236.876633 89.220924,239.298981 88.369751,241.103394 
	C86.740837,244.556580 87.877930,249.794510 82.104950,251.022095 
z"/>
<path fill="#251009" opacity="1.000000" stroke="none" 
	d="
M262.803894,78.019936 
	C283.579926,68.296341 298.842072,52.928284 306.625732,33.494518 
	C311.864014,41.481445 316.843811,49.157791 321.913300,56.774452 
	C325.304871,61.870159 328.556335,67.095428 332.373901,71.859299 
	C335.219299,75.410042 338.592712,78.681137 342.219299,81.433250 
	C350.391174,87.634605 357.561462,94.122253 357.240295,105.667786 
	C357.181244,107.789604 358.840057,110.483101 360.520813,112.023842 
	C364.404022,115.583588 368.615479,118.855095 373.001190,121.783081 
	C383.848145,129.024689 385.950928,137.489639 379.845093,148.798935 
	C377.762360,152.656555 376.740265,157.074463 375.042999,161.157166 
	C374.032990,163.586746 372.843750,165.987823 371.403259,168.184082 
	C366.363159,175.868301 361.364410,177.251785 352.297241,175.944824 
	C344.764404,174.859039 336.891357,174.375717 329.378937,175.311249 
	C317.623657,176.775162 305.596741,189.601074 304.675323,201.363373 
	C304.196411,207.477112 305.850555,213.746704 306.361481,219.960678 
	C306.443085,220.953369 305.577759,222.023926 304.807220,222.544586 
	C303.735504,216.542862 303.006744,211.055038 302.279785,205.413177 
	C302.281616,205.259109 302.095367,205.013611 302.153687,204.593277 
	C302.263245,202.478912 302.314484,200.784882 302.592041,198.824188 
	C306.786194,186.285202 313.924988,176.267670 326.934875,173.644623 
	C335.463928,171.925034 344.711853,172.788589 353.507080,173.724274 
	C359.176910,174.327469 363.811707,174.120804 367.218933,169.341476 
	C369.413208,166.263596 371.380188,162.958801 372.977051,159.535522 
	C375.213043,154.742065 376.834503,149.663620 379.033752,144.850998 
	C382.610840,137.023361 381.185425,130.672165 374.241119,125.636230 
	C370.473938,122.904350 366.108093,120.828217 362.854980,117.605652 
	C359.671753,114.452301 355.550842,110.317047 355.360809,106.440300 
	C354.837769,95.768776 349.247345,89.134178 341.105957,83.876488 
	C333.089539,78.699539 327.816559,71.323204 322.987640,63.354130 
	C318.049866,55.205490 312.653198,47.334908 307.014832,38.661812 
	C296.429688,57.858814 283.524658,73.330688 262.914764,80.291824 
	C262.520050,79.620789 262.211609,79.285912 262.033905,78.695297 
	C262.297089,78.301254 262.429535,78.162949 262.613281,78.017159 
	C262.664642,78.009674 262.803894,78.019936 262.803894,78.019936 
z"/>
<path fill="#230F09" opacity="1.000000" stroke="none" 
	d="
M261.903168,78.951035 
	C262.211609,79.285912 262.520050,79.620789 262.797852,80.326981 
	C262.632050,80.803360 262.479706,80.867836 262.039307,81.008514 
	C261.513306,81.412628 261.258179,81.699966 260.921692,82.091507 
	C260.840363,82.195702 260.582336,82.138237 260.254028,82.195824 
	C259.659363,82.587257 259.393005,82.921104 259.131836,83.182617 
	C259.137024,83.110283 259.269073,83.170303 258.946930,83.223053 
	C258.133667,83.935165 257.642578,84.594528 257.130493,85.193581 
	C257.109528,85.133270 257.236847,85.143097 256.965424,85.210159 
	C256.487762,85.573318 256.281525,85.869423 255.910553,86.450546 
	C252.477264,90.490448 249.208725,94.245346 245.578384,97.994202 
	C244.734711,97.963089 244.252853,97.938019 243.865829,97.569290 
	C244.662781,95.959625 245.364883,94.693626 246.066971,93.427628 
	C245.495850,93.086586 244.924728,92.745544 244.353607,92.404503 
	C236.892624,104.120018 229.431641,115.835526 221.900360,127.661415 
	C209.968185,110.123238 205.850662,90.223557 207.342941,68.874390 
	C207.640106,64.622917 207.810654,60.362591 208.029572,55.718815 
	C208.013611,54.555969 208.007675,53.780659 208.096542,52.676193 
	C208.674377,51.572304 209.157410,50.797562 209.868134,49.966194 
	C210.372406,49.560440 210.648972,49.211304 210.939697,48.904633 
	C210.953857,48.947098 210.867310,48.924149 211.120865,48.866318 
	C212.172531,48.861435 212.970627,48.914383 213.811874,49.270386 
	C213.484482,50.058403 213.113953,50.543365 212.614136,51.103737 
	C212.268555,51.449856 212.299728,51.701069 212.695343,52.269203 
	C212.829559,53.075413 212.846802,53.545204 212.668762,54.138680 
	C212.234497,54.476112 212.084686,54.740406 211.987396,55.405609 
	C211.585983,56.846233 211.221207,57.936493 210.607452,59.294739 
	C210.238358,61.037048 210.118240,62.511375 209.991547,64.257263 
	C209.925003,64.699722 209.865036,64.870605 209.561432,65.325188 
	C209.258713,66.865128 209.199646,68.121368 209.181366,69.819710 
	C208.501617,88.992027 211.784439,106.729958 221.969635,123.249672 
	C222.575470,122.386070 222.879578,122.033554 223.095352,121.633408 
	C233.671173,102.021332 246.214828,84.081070 265.162933,71.455246 
	C266.019318,70.884621 266.529419,68.522400 266.082031,67.470390 
	C262.811371,59.779335 259.848999,51.857777 255.612350,44.706242 
	C251.760422,38.204136 246.805405,32.395847 237.852814,32.083046 
	C231.024643,31.844469 225.132660,28.864370 219.925095,24.089851 
	C216.634399,21.072798 212.510056,18.544657 208.316010,17.008291 
	C192.769913,11.313409 176.953171,11.070706 160.830765,15.882572 
	C160.315079,15.339903 160.079575,14.972470 159.844070,14.605038 
	C175.865738,8.040802 191.947556,9.625802 208.042358,14.274833 
	C213.495178,15.849895 218.267914,18.309591 222.326981,22.615543 
	C226.990524,27.562742 233.353119,29.456505 240.093399,30.368874 
	C243.124954,30.779222 246.537506,31.723156 248.842682,33.583145 
	C260.008514,42.592598 265.062347,55.311237 269.021912,68.579575 
	C269.303070,69.521645 269.545929,70.475143 269.744812,71.198723 
	C267.311066,73.169800 264.912018,75.112801 262.658417,77.537865 
	C262.803894,78.019936 262.664642,78.009674 262.630951,77.630310 
	C261.836273,77.670555 261.075317,78.090164 260.314362,78.509781 
	C260.843964,78.656868 261.373566,78.803955 261.903168,78.951035 
M253.331223,84.014183 
	C252.767319,84.468826 252.203430,84.923470 251.639526,85.378113 
	C251.996338,85.737114 252.353149,86.096115 252.709961,86.455109 
	C253.156891,85.647186 253.603806,84.839256 254.440109,83.761490 
	C254.426987,83.402077 254.413879,83.042671 254.400757,82.683258 
	C254.240204,83.095238 254.079636,83.507217 253.331223,84.014183 
M248.955139,89.312759 
	C249.098053,89.075851 249.240952,88.838936 249.383865,88.602028 
	C249.139908,88.514549 248.895950,88.427071 248.651993,88.339592 
	C248.611023,88.691132 248.570053,89.042664 248.955139,89.312759 
z"/>
<path fill="#080808" opacity="1.000000" stroke="none" 
	d="
M261.293640,234.105377 
	C266.734863,234.125351 271.712036,234.145187 276.689240,234.165024 
	C276.779236,234.686920 276.869232,235.208817 276.959259,235.730713 
	C269.097198,244.369812 269.137665,255.864639 265.649139,266.082733 
	C265.237091,267.289734 264.752441,268.916809 265.226929,269.904633 
	C267.275574,274.169525 265.217682,274.770935 261.600281,274.665070 
	C256.954620,274.529083 252.300598,274.694275 247.652954,274.597168 
	C246.782913,274.579041 245.229675,273.985596 245.201263,273.574127 
	C245.132584,272.579193 245.647537,271.463318 246.162064,270.524994 
	C247.363632,268.333801 249.149994,266.363342 249.902527,264.044800 
	C252.077713,257.343018 253.894882,250.523239 255.765869,243.725922 
	C256.148743,242.334946 256.755096,240.558380 256.231506,239.440582 
	C253.638107,233.903992 257.181854,234.040421 261.293640,234.105377 
z"/>
<path fill="#250F08" opacity="1.000000" stroke="none" 
	d="
M159.476334,14.674673 
	C160.079575,14.972470 160.315079,15.339903 160.601318,16.148300 
	C144.702698,22.962553 133.915894,34.767136 126.041359,49.594265 
	C125.443375,50.720238 125.062927,52.107033 125.053741,53.376003 
	C125.006821,59.858540 122.296150,65.310539 118.555939,70.308838 
	C111.129227,80.233658 100.433670,85.497864 89.628265,90.771652 
	C83.284485,93.867867 77.114677,97.569138 71.501389,101.833771 
	C67.114761,105.166466 68.136528,106.495697 72.105659,110.325951 
	C76.324860,114.397507 80.951080,118.994453 82.875587,124.280838 
	C85.975304,132.795395 91.006744,138.524719 99.238617,142.319977 
	C100.312187,142.706863 101.173790,142.840424 102.026138,142.984787 
	C102.016884,142.995590 102.022903,142.967041 101.823883,143.233231 
	C101.000816,143.700989 100.376778,143.902557 99.752739,144.104126 
	C90.709305,142.129181 84.773933,136.575012 82.019150,127.897346 
	C79.921913,121.290970 76.027840,115.944885 70.481133,112.332397 
	C65.216377,108.903557 64.759315,104.140953 69.405083,100.241089 
	C74.259407,96.166138 80.056435,93.186104 85.546318,89.902931 
	C93.721786,85.013649 102.358978,80.802284 110.114143,75.330772 
	C117.919296,69.823982 122.665955,61.946846 122.929909,51.934544 
	C122.958740,50.840775 123.295898,49.657597 123.813667,48.688866 
	C131.899902,33.559998 142.631912,21.158661 159.476334,14.674673 
z"/>
<path fill="#2B130A" opacity="1.000000" stroke="none" 
	d="
M100.029724,144.449356 
	C100.376778,143.902557 101.000816,143.700989 102.278091,143.225281 
	C105.912750,142.914246 108.962296,143.273773 111.864380,142.775146 
	C128.785141,139.867920 145.710831,136.959030 162.550812,133.626114 
	C169.862427,132.178986 175.539337,134.263580 179.231781,140.277374 
	C182.022568,144.822693 183.577789,150.126617 185.723358,155.534943 
	C186.276993,161.641739 186.790176,167.306534 187.301392,173.375031 
	C187.349854,174.851746 187.400253,175.924728 187.378265,177.221405 
	C187.394928,177.782425 187.608459,177.994293 187.966446,178.049866 
	C187.986389,178.019012 187.913071,178.014542 187.906952,178.474213 
	C188.538651,184.727158 189.176453,190.520432 189.776901,196.742523 
	C190.791748,205.460983 191.843948,213.750641 192.928635,222.260788 
	C192.961121,222.481277 192.894913,222.922073 192.894913,222.922073 
	C191.855194,222.200851 189.994370,221.574249 189.898727,220.744217 
	C188.431030,208.006973 187.208969,195.241608 185.896957,182.486160 
	C184.920959,172.997665 184.280823,163.450500 182.723099,154.056824 
	C182.015747,149.791183 179.991928,145.476501 177.589752,141.825989 
	C174.491013,137.116928 170.102097,134.655640 163.743149,135.907578 
	C146.971283,139.209579 130.117569,142.123932 113.239395,144.837997 
	C109.039429,145.513382 104.623421,144.845215 100.029724,144.449356 
z"/>
<path fill="#E07B1F" opacity="1.000000" stroke="none" 
	d="
M193.366821,222.991913 
	C192.894913,222.922073 192.961121,222.481277 193.404480,222.245621 
	C230.054047,222.009964 266.260223,222.009964 302.277985,222.009964 
	C302.277985,216.078674 302.277985,210.822952 302.277985,205.567230 
	C303.006744,211.055038 303.735504,216.542862 304.422668,222.480194 
	C267.533630,222.973740 230.686188,223.017761 193.366821,222.991913 
z"/>
<path fill="#F5F5F5" opacity="1.000000" stroke="none" 
	d="
M38.143837,246.869522 
	C38.409924,247.064865 38.676003,247.260223 39.010727,247.711792 
	C38.878780,247.974442 38.678188,247.980881 38.176563,247.989365 
	C37.875530,247.991394 37.585300,247.820557 37.725979,247.496826 
	C37.866657,247.173080 38.143837,246.869522 38.143837,246.869522 
z"/>
<path fill="#F6F6F6" opacity="1.000000" stroke="none" 
	d="
M113.545822,248.326141 
	C111.362450,254.594803 109.528343,260.542755 107.154747,266.266998 
	C106.605484,267.591583 104.212700,268.151733 102.668213,269.063629 
	C102.121758,267.465759 100.802795,265.666046 101.158745,264.303986 
	C102.978447,257.340973 104.990494,250.401947 107.490723,243.660538 
	C108.159653,241.856888 110.780785,240.777283 112.505692,239.365280 
	C112.903389,239.660690 113.301094,239.956116 113.698792,240.251541 
	C113.698792,242.809036 113.698792,245.366547 113.545822,248.326141 
z"/>
<path fill="#F6F6F6" opacity="1.000000" stroke="none" 
	d="
M33.027290,262.694366 
	C29.810495,265.654083 27.563652,269.816193 21.814119,267.478973 
	C22.866762,263.871185 23.984558,260.040100 25.038364,256.428345 
	C28.453476,258.451935 31.159769,260.055511 33.866058,261.659119 
	C33.672840,261.907166 33.479622,262.155212 33.027290,262.694366 
z"/>
<path fill="#F5F5F5" opacity="1.000000" stroke="none" 
	d="
M37.732212,247.328537 
	C34.172955,248.215622 30.748142,248.947266 27.153938,249.715088 
	C28.466909,247.231445 26.431133,242.340820 31.402399,240.759628 
	C35.686275,239.397064 37.792076,241.854248 38.125336,246.465393 
	C38.143837,246.869522 37.866657,247.173080 37.732212,247.328537 
z"/>
<path fill="#F3F3F3" opacity="1.000000" stroke="none" 
	d="
M155.550720,241.455383 
	C156.467575,249.968201 154.028046,253.645630 147.183762,254.339172 
	C148.189545,250.836853 149.354752,247.495895 150.075195,244.061646 
	C150.745361,240.867065 152.244568,239.840302 155.550720,241.455383 
z"/>
<path fill="#F2F2F2" opacity="1.000000" stroke="none" 
	d="
M180.904419,250.058426 
	C182.040512,247.649231 182.874146,245.474197 184.193573,243.650696 
	C184.733170,242.904984 186.590347,242.374329 187.357635,242.749344 
	C188.057022,243.091202 188.431503,244.820267 188.338074,245.884216 
	C188.213058,247.307602 187.262634,248.649094 187.080322,250.078522 
	C186.461411,254.931152 184.196182,257.221863 178.488373,255.220047 
	C179.220062,253.703506 180.008774,252.068802 180.904419,250.058426 
z"/>
<path fill="#EDEDED" opacity="1.000000" stroke="none" 
	d="
M388.179688,255.845795 
	C387.156219,255.342758 385.956482,254.565140 386.043304,254.375015 
	C387.670959,250.810577 389.320801,247.239609 391.293610,243.861343 
	C391.771820,243.042450 393.420258,242.906937 394.530609,242.457199 
	C394.836090,243.702454 395.602142,245.046967 395.359222,246.174057 
	C394.675293,249.347839 393.576477,252.432205 392.553406,255.844727 
	C391.210175,255.844727 389.906281,255.844727 388.179688,255.845795 
z"/>
<path fill="#FD7F02" opacity="1.000000" stroke="none" 
	d="
M302.279785,205.413177 
	C302.277985,210.822952 302.277985,216.078674 302.277985,222.009964 
	C266.260223,222.009964 230.054047,222.009964 193.372009,222.025131 
	C191.843948,213.750641 190.791748,205.460983 189.841888,196.259674 
	C189.267181,189.570190 188.590134,183.792374 187.913071,178.014542 
	C187.913071,178.014542 187.986389,178.019012 187.964050,177.839264 
	C187.868622,177.371689 187.704926,177.151093 187.450653,176.997726 
	C187.400253,175.924728 187.349854,174.851746 187.526413,173.038605 
	C187.063217,166.563293 186.373062,160.828110 185.682922,155.092926 
	C183.577789,150.126617 182.022568,144.822693 179.231781,140.277374 
	C175.539337,134.263580 169.862427,132.178986 162.550812,133.626114 
	C145.710831,136.959030 128.785141,139.867920 111.864380,142.775146 
	C108.962296,143.273773 105.912750,142.914246 102.477112,142.959106 
	C102.022903,142.967041 102.016884,142.995590 101.776062,142.781097 
	C100.699051,142.399948 99.862854,142.233292 99.026649,142.066620 
	C91.006744,138.524719 85.975304,132.795395 82.875587,124.280838 
	C80.951080,118.994453 76.324860,114.397507 72.105659,110.325951 
	C68.136528,106.495697 67.114761,105.166466 71.501389,101.833771 
	C77.114677,97.569138 83.284485,93.867867 89.628265,90.771652 
	C100.433670,85.497864 111.129227,80.233658 118.555939,70.308838 
	C122.296150,65.310539 125.006821,59.858540 125.053741,53.376003 
	C125.062927,52.107033 125.443375,50.720238 126.041359,49.594265 
	C133.915894,34.767136 144.702698,22.962553 160.881531,16.323536 
	C176.953171,11.070706 192.769913,11.313409 208.316010,17.008291 
	C212.510056,18.544657 216.634399,21.072798 219.925095,24.089851 
	C225.132660,28.864370 231.024643,31.844469 237.852814,32.083046 
	C246.805405,32.395847 251.760422,38.204136 255.612350,44.706242 
	C259.848999,51.857777 262.811371,59.779335 266.082031,67.470390 
	C266.529419,68.522400 266.019318,70.884621 265.162933,71.455246 
	C246.214828,84.081070 233.671173,102.021332 223.095352,121.633408 
	C222.879578,122.033554 222.575470,122.386070 221.969635,123.249672 
	C211.784439,106.729958 208.501617,88.992027 209.457169,69.549232 
	C209.729828,67.571609 209.767456,66.306549 209.805084,65.041496 
	C209.865036,64.870605 209.925003,64.699722 210.202072,63.963737 
	C210.564941,61.941345 210.710693,60.484051 210.856445,59.026756 
	C211.221207,57.936493 211.585983,56.846233 212.242249,55.341099 
	C212.643845,54.622478 212.753952,54.318737 212.864059,54.014992 
	C212.846802,53.545204 212.829559,53.075413 212.780945,52.051193 
	C212.749557,51.496758 212.743408,51.028320 212.743408,51.028324 
	C213.113953,50.543365 213.484482,50.058403 213.980255,48.963905 
	C214.434311,47.397217 214.763123,46.440060 215.091934,45.482903 
	C214.788925,45.311970 214.485916,45.141037 214.182907,44.970108 
	C213.077698,46.288120 211.972504,47.606133 210.867310,48.924145 
	C210.867310,48.924149 210.953857,48.947098 210.680725,48.963898 
	C210.151886,49.328064 209.896164,49.675434 209.640442,50.022812 
	C209.157410,50.797562 208.674377,51.572304 207.829498,52.892036 
	C202.902084,61.088692 201.223648,69.421196 201.303329,78.261177 
	C201.459946,95.631447 206.902161,111.532158 214.702927,126.743614 
	C216.586014,130.415649 216.937912,133.347214 215.005478,137.323105 
	C206.804581,154.196014 202.268738,172.125641 201.426788,190.886597 
	C201.227905,195.318237 201.907379,199.806061 202.403931,204.243301 
	C202.583160,205.845032 203.146072,208.308212 205.378052,204.842407 
	C206.521652,202.257904 207.689499,199.903305 208.084961,197.425446 
	C208.837479,192.710449 208.985321,187.901306 209.672226,183.173080 
	C212.168427,165.990753 218.374237,149.942444 225.139328,133.729492 
	C226.609634,130.760925 227.872345,128.073853 229.386749,125.172012 
	C229.841934,124.336090 230.045395,123.714920 230.181793,123.089279 
	C230.114700,123.084801 230.149872,123.214584 230.386566,123.101997 
	C230.720306,122.665138 230.817368,122.340858 231.121521,121.733566 
	C235.205551,114.903969 239.082489,108.357384 242.974518,101.894676 
	C242.989624,101.978554 242.820831,102.002281 243.116806,101.862152 
	C244.255249,100.481422 245.097717,99.240837 245.940186,98.000244 
	C249.208725,94.245346 252.477264,90.490448 256.173370,86.368011 
	C256.812897,85.714684 257.024872,85.428894 257.236847,85.143097 
	C257.236847,85.143097 257.109528,85.133270 257.422668,85.090652 
	C258.246887,84.422127 258.757996,83.796219 259.269073,83.170303 
	C259.269073,83.170303 259.137024,83.110283 259.438721,83.091759 
	C260.021088,82.761574 260.301697,82.449905 260.582336,82.138237 
	C260.582336,82.138237 260.840363,82.195702 261.216553,82.024765 
	C261.831879,81.533127 262.070984,81.212440 262.310120,80.891747 
	C262.479706,80.867836 262.632050,80.803360 262.884094,80.663147 
	C283.524658,73.330688 296.429688,57.858814 307.014832,38.661812 
	C312.653198,47.334908 318.049866,55.205490 322.987640,63.354130 
	C327.816559,71.323204 333.089539,78.699539 341.105957,83.876488 
	C349.247345,89.134178 354.837769,95.768776 355.360809,106.440300 
	C355.550842,110.317047 359.671753,114.452301 362.854980,117.605652 
	C366.108093,120.828217 370.473938,122.904350 374.241119,125.636230 
	C381.185425,130.672165 382.610840,137.023361 379.033752,144.850998 
	C376.834503,149.663620 375.213043,154.742065 372.977051,159.535522 
	C371.380188,162.958801 369.413208,166.263596 367.218933,169.341476 
	C363.811707,174.120804 359.176910,174.327469 353.507080,173.724274 
	C344.711853,172.788589 335.463928,171.925034 326.934875,173.644623 
	C313.924988,176.267670 306.786194,186.285202 302.245850,198.991882 
	C301.814026,201.288681 301.954681,203.151154 302.095337,205.013611 
	C302.095367,205.013611 302.281616,205.259109 302.279785,205.413177 
z"/>
<path fill="#E07B1F" opacity="1.000000" stroke="none" 
	d="
M302.153687,204.593277 
	C301.954681,203.151154 301.814026,201.288681 302.019531,199.258545 
	C302.314484,200.784882 302.263245,202.478912 302.153687,204.593277 
z"/>
<path fill="#FEFEFE" opacity="1.000000" stroke="none" 
	d="
M262.033905,78.695297 
	C261.373566,78.803955 260.843964,78.656868 260.314362,78.509781 
	C261.075317,78.090164 261.836273,77.670555 262.579590,77.637794 
	C262.429535,78.162949 262.297089,78.301254 262.033905,78.695297 
z"/>
<path fill="#EEEEED" opacity="1.000000" stroke="none" 
	d="
M208.039597,56.106346 
	C207.810654,60.362591 207.640106,64.622917 207.342941,68.874390 
	C205.850662,90.223557 209.968185,110.123238 221.900360,127.661415 
	C229.431641,115.835526 236.892624,104.120018 244.353607,92.404503 
	C244.924728,92.745544 245.495850,93.086586 246.066971,93.427628 
	C245.364883,94.693626 244.662781,95.959625 243.646942,97.628830 
	C243.058456,98.217079 242.921524,98.475220 242.637939,98.953346 
	C242.375702,99.609520 242.397964,100.118813 242.324173,100.887871 
	C242.425690,101.432510 242.623260,101.717392 242.820831,102.002281 
	C242.820831,102.002281 242.989624,101.978554 242.703979,101.508850 
	C241.542297,101.634117 240.300781,102.027878 239.845596,102.854568 
	C233.994476,113.481644 228.255585,124.170525 222.270538,135.107819 
	C219.426788,141.902359 216.452988,148.317780 214.246918,154.987152 
	C209.598907,169.039001 206.549866,183.443878 205.923157,198.305161 
	C205.883652,199.241684 204.577759,200.124817 203.927582,200.565735 
	C202.551407,178.450516 208.533737,158.311890 216.987854,138.815094 
	C219.190140,133.736221 219.171524,129.957703 216.619339,124.925789 
	C205.555099,103.111366 198.594421,80.570427 208.039597,56.106346 
z"/>
<path fill="#2B130B" opacity="1.000000" stroke="none" 
	d="
M208.029572,55.718815 
	C198.594421,80.570427 205.555099,103.111366 216.619339,124.925789 
	C219.171524,129.957703 219.190140,133.736221 216.987854,138.815094 
	C208.533737,158.311890 202.551407,178.450516 203.685089,200.805969 
	C203.935165,202.681076 204.494354,203.848862 205.053528,205.016647 
	C203.146072,208.308212 202.583160,205.845032 202.403931,204.243301 
	C201.907379,199.806061 201.227905,195.318237 201.426788,190.886597 
	C202.268738,172.125641 206.804581,154.196014 215.005478,137.323105 
	C216.937912,133.347214 216.586014,130.415649 214.702927,126.743614 
	C206.902161,111.532158 201.459946,95.631447 201.303329,78.261177 
	C201.223648,69.421196 202.902084,61.088692 207.734695,53.221188 
	C208.007675,53.780659 208.013611,54.555969 208.029572,55.718815 
z"/>
<path fill="#2B130B" opacity="1.000000" stroke="none" 
	d="
M211.120865,48.866314 
	C211.972504,47.606133 213.077698,46.288120 214.182907,44.970108 
	C214.485916,45.141037 214.788925,45.311970 215.091934,45.482903 
	C214.763123,46.440060 214.434311,47.397217 213.937119,48.660851 
	C212.970627,48.914383 212.172531,48.861435 211.120865,48.866314 
z"/>
<path fill="#251009" opacity="1.000000" stroke="none" 
	d="
M243.116806,101.862152 
	C242.623260,101.717392 242.425690,101.432510 242.520935,100.449921 
	C242.849976,99.436958 242.886200,99.121712 242.922424,98.806473 
	C242.921524,98.475220 243.058456,98.217079 243.552094,97.972496 
	C244.252853,97.938019 244.734711,97.963089 245.578384,97.994202 
	C245.097717,99.240837 244.255249,100.481422 243.116806,101.862152 
z"/>
<path fill="#2B130B" opacity="1.000000" stroke="none" 
	d="
M210.607452,59.294739 
	C210.710693,60.484051 210.564941,61.941345 210.208649,63.692169 
	C210.118240,62.511375 210.238358,61.037048 210.607452,59.294739 
z"/>
<path fill="#251009" opacity="1.000000" stroke="none" 
	d="
M254.050735,84.031334 
	C253.603806,84.839256 253.156891,85.647186 252.709961,86.455109 
	C252.353149,86.096115 251.996338,85.737114 251.639526,85.378113 
	C252.203430,84.923470 252.767319,84.468826 253.656708,83.996323 
	C253.982178,83.978455 254.050735,84.031334 254.050735,84.031334 
z"/>
<path fill="#2B130B" opacity="1.000000" stroke="none" 
	d="
M209.561432,65.325188 
	C209.767456,66.306549 209.729828,67.571609 209.416382,69.107140 
	C209.199646,68.121368 209.258713,66.865128 209.561432,65.325188 
z"/>
<path fill="#251009" opacity="1.000000" stroke="none" 
	d="
M258.946930,83.223053 
	C258.757996,83.796219 258.246887,84.422127 257.443634,85.150963 
	C257.642578,84.594528 258.133667,83.935165 258.946930,83.223053 
z"/>
<path fill="#251009" opacity="1.000000" stroke="none" 
	d="
M248.742126,89.353485 
	C248.570053,89.042664 248.611023,88.691132 248.651993,88.339592 
	C248.895950,88.427071 249.139908,88.514549 249.383850,88.602020 
	C249.240952,88.838936 249.098053,89.075851 248.742126,89.353485 
z"/>
<path fill="#251009" opacity="1.000000" stroke="none" 
	d="
M253.950623,83.948822 
	C254.079636,83.507217 254.240204,83.095238 254.400757,82.683258 
	C254.413879,83.042671 254.426987,83.402077 254.245422,83.896408 
	C254.050735,84.031334 253.982178,83.978455 253.950623,83.948822 
z"/>
<path fill="#2B130B" opacity="1.000000" stroke="none" 
	d="
M209.868134,49.966187 
	C209.896164,49.675434 210.151886,49.328064 210.666565,48.921432 
	C210.648972,49.211304 210.372406,49.560440 209.868134,49.966187 
z"/>
<path fill="#251009" opacity="1.000000" stroke="none" 
	d="
M262.039307,81.008514 
	C262.070984,81.212440 261.831879,81.533127 261.297882,81.920563 
	C261.258179,81.699966 261.513306,81.412628 262.039307,81.008514 
z"/>
<path fill="#2B130B" opacity="1.000000" stroke="none" 
	d="
M212.668762,54.138680 
	C212.753952,54.318737 212.643845,54.622478 212.278885,54.990738 
	C212.084686,54.740406 212.234497,54.476112 212.668762,54.138680 
z"/>
<path fill="#2B130B" opacity="1.000000" stroke="none" 
	d="
M212.614136,51.103729 
	C212.743408,51.028320 212.749557,51.496758 212.663956,51.714767 
	C212.299728,51.701069 212.268555,51.449856 212.614136,51.103729 
z"/>
<path fill="#251009" opacity="1.000000" stroke="none" 
	d="
M256.965424,85.210159 
	C257.024872,85.428894 256.812897,85.714684 256.338104,86.083000 
	C256.281525,85.869423 256.487762,85.573318 256.965424,85.210159 
z"/>
<path fill="#251009" opacity="1.000000" stroke="none" 
	d="
M260.254028,82.195824 
	C260.301697,82.449905 260.021088,82.761574 259.433563,83.164093 
	C259.393005,82.921104 259.659363,82.587257 260.254028,82.195824 
z"/>
<path fill="#2B130A" opacity="1.000000" stroke="none" 
	d="
M99.238617,142.319962 
	C99.862854,142.233292 100.699051,142.399948 101.785316,142.770294 
	C101.173790,142.840424 100.312187,142.706863 99.238617,142.319962 
z"/>
<path fill="#D48026" opacity="1.000000" stroke="none" 
	d="
M187.906952,178.474213 
	C188.590134,183.792374 189.267181,189.570190 189.879242,195.830872 
	C189.176453,190.520432 188.538651,184.727158 187.906952,178.474213 
z"/>
<path fill="#D48026" opacity="1.000000" stroke="none" 
	d="
M185.723358,155.534943 
	C186.373062,160.828110 187.063217,166.563293 187.528351,172.634903 
	C186.790176,167.306534 186.276993,161.641739 185.723358,155.534943 
z"/>
<path fill="#D48026" opacity="1.000000" stroke="none" 
	d="
M187.378265,177.221405 
	C187.704926,177.151093 187.868622,177.371689 187.944122,177.870102 
	C187.608459,177.994293 187.394928,177.782425 187.378265,177.221405 
z"/>
<path fill="#251009" opacity="1.000000" stroke="none" 
	d="
M205.378067,204.842407 
	C204.494354,203.848862 203.935165,202.681076 203.618500,201.273041 
	C204.577759,200.124817 205.883652,199.241684 205.923157,198.305161 
	C206.549866,183.443878 209.598907,169.039001 214.246918,154.987152 
	C216.452988,148.317780 219.426788,141.902359 222.595184,135.079010 
	C223.735641,134.527740 224.333679,134.269348 224.931732,134.010956 
	C218.374237,149.942444 212.168427,165.990753 209.672226,183.173080 
	C208.985321,187.901306 208.837479,192.710449 208.084961,197.425446 
	C207.689499,199.903305 206.521652,202.257904 205.378067,204.842407 
z"/>
<path fill="#230F09" opacity="1.000000" stroke="none" 
	d="
M225.139328,133.729492 
	C224.333679,134.269348 223.735641,134.527740 222.812927,134.814941 
	C228.255585,124.170525 233.994476,113.481644 239.845596,102.854568 
	C240.300781,102.027878 241.542297,101.634117 242.688873,101.424973 
	C239.082489,108.357384 235.205551,114.903969 230.911560,121.871605 
	C230.379639,122.599968 230.264771,122.907280 230.149872,123.214584 
	C230.149872,123.214584 230.114700,123.084801 229.863312,123.243675 
	C229.452957,124.063957 229.294006,124.725365 229.135071,125.386772 
	C227.872345,128.073853 226.609634,130.760925 225.139328,133.729492 
z"/>
<path fill="#251009" opacity="1.000000" stroke="none" 
	d="
M229.386765,125.172012 
	C229.294006,124.725365 229.452957,124.063957 229.930389,123.248154 
	C230.045395,123.714920 229.841934,124.336090 229.386765,125.172012 
z"/>
<path fill="#251009" opacity="1.000000" stroke="none" 
	d="
M230.386566,123.102005 
	C230.264771,122.907280 230.379639,122.599968 230.704468,122.154625 
	C230.817368,122.340858 230.720306,122.665138 230.386566,123.102005 
z"/>
<path fill="#230F09" opacity="1.000000" stroke="none" 
	d="
M242.637939,98.953346 
	C242.886200,99.121712 242.849976,99.436958 242.617004,100.190155 
	C242.397964,100.118813 242.375702,99.609520 242.637939,98.953346 
z"/>
</svg>